<svg width="30" height="30" viewBox="0 0 30 30" fill="none" xmlns="http://www.w3.org/2000/svg">
<path d="M10.938 19.7671C11.1458 19.7671 11.3145 19.9358 11.3145 20.1435C11.3145 20.3513 11.1458 20.52 10.938 20.52C10.7302 20.52 10.5615 20.3513 10.5615 20.1435C10.5615 19.9358 10.7302 19.7671 10.938 19.7671Z" fill="#4A4A4A"/>
<path d="M22.9849 9.97945C22.7769 9.97945 22.6084 9.75475 22.6084 9.4775V7.46972C22.6084 7.19247 22.7769 6.96777 22.9849 6.96777C23.1928 6.96777 23.3613 7.19247 23.3613 7.46972V9.4775C23.3613 9.75475 23.1928 9.97945 22.9849 9.97945Z" fill="#4A4A4A"/>
<path fill-rule="evenodd" clip-rule="evenodd" d="M3.00716 14.1322V9.66171C3.00716 8.12107 4.26054 6.86768 5.80119 6.86768H8.9305V2.62075C8.9305 1.69632 9.68249 0.944336 10.6069 0.944336H21.0007C21.9252 0.944336 22.6771 1.69632 22.6771 2.62075V4.63246H24.3536C25.278 4.63246 26.03 5.38444 26.03 6.30888V6.86768H26.5888C28.1294 6.86768 29.3828 8.12107 29.3828 9.66171V26.7612C29.3828 28.3018 28.1294 29.5552 26.5888 29.5552H9.48931C8.1401 29.5552 7.01114 28.5939 6.7516 27.32H5.80119C4.26054 27.32 3.00716 26.0666 3.00716 24.526V23.0731H2.44835C1.52392 23.0731 0.771933 22.3211 0.771933 21.3966V16.3674C0.771933 15.135 1.77473 14.1322 3.00716 14.1322ZM1.89112 16.3678C1.89112 16.9851 2.39143 17.4854 3.00874 17.4854V15.2501C2.39252 15.2501 1.89112 15.7515 1.89112 16.3678ZM4.12631 9.66203C4.12631 8.7376 4.87829 7.98561 5.80273 7.98561H8.93204V11.3948C7.65814 11.6543 6.69682 12.7833 6.69682 14.1325V17.4853H4.12631V9.66203ZM21.5611 2.62069C21.5611 2.31247 21.3105 2.06188 21.0023 2.06188H10.6085C10.3002 2.06188 10.0497 2.31247 10.0497 2.62069V11.3381H12.6202V6.30881C12.6202 5.38438 13.3722 4.63239 14.2966 4.63239H21.5611V2.62069ZM15.9721 5.74994V11.338H13.7369V6.30875C13.7369 6.00053 13.9875 5.74994 14.2957 5.74994H15.9721ZM19.3258 11.338V5.74994H17.0906V11.338H19.3258ZM24.3543 5.74994C24.6625 5.74994 24.9131 6.00053 24.9131 6.30875V11.338H20.4426V5.74994H24.3543ZM26.5904 7.98561H26.0316V11.3384H26.4708C27.3943 11.3384 28.2668 10.6696 28.2668 9.66203C28.2668 8.7376 27.5148 7.98561 26.5904 7.98561ZM26.5904 28.4376H9.4909C8.56647 28.4376 7.81448 27.6857 7.81448 26.7612V23.0731H11.7261C12.6506 23.0731 13.4025 22.3211 13.4025 21.3967V19.1615C13.4025 18.237 12.6506 17.485 11.7261 17.485H7.81448V14.1322C7.81448 13.2078 8.56647 12.4558 9.4909 12.4558H26.4708C27.1396 12.4558 27.7671 12.2347 28.2668 11.8625V26.7612C28.2668 27.6857 27.5148 28.4376 26.5904 28.4376ZM4.12629 24.5264C4.12629 25.4508 4.87828 26.2028 5.80271 26.2028H6.6968V23.0735H4.12629V24.5264ZM11.7269 21.9555H2.45076C2.14254 21.9555 1.89195 21.705 1.89195 21.3967V18.3034C2.22811 18.4984 2.61076 18.6027 3.00957 18.6027H11.7269C12.0352 18.6027 12.2857 18.8533 12.2857 19.1615V21.3967C12.2857 21.705 12.0352 21.9555 11.7269 21.9555Z" fill="#4A4A4A"/>
</svg>
