<svg width="19" height="25" viewBox="0 0 19 25" fill="none" xmlns="http://www.w3.org/2000/svg">
<path d="M15.5736 7.15697V5.91184H15.6386C15.903 5.91184 16.1119 5.66889 16.1119 5.40468V0.943261C16.1128 0.817346 16.0633 0.696338 15.9745 0.607334C15.8855 0.51833 15.7645 0.468805 15.6386 0.46974H3.47115C3.34711 0.469506 3.2282 0.519731 3.142 0.609203C3.05603 0.698441 3.01001 0.819215 3.01492 0.943027V5.40445C3.01492 5.66866 3.20694 5.91161 3.47115 5.91161H3.55315V7.15884C3.55315 7.16187 3.53633 7.16468 3.53026 7.16795C3.50689 7.17963 3.48143 7.19154 3.4583 7.20346C3.42887 7.21864 3.39803 7.23382 3.3686 7.24948C3.34524 7.26209 3.32141 7.27541 3.29805 7.28849C3.26978 7.30437 3.24128 7.32003 3.21348 7.33661C3.18989 7.35039 3.16676 7.36464 3.14364 7.37866C3.1163 7.39548 3.08921 7.41207 3.06234 7.42912C3.03945 7.44407 3.01632 7.45902 2.99366 7.47421C2.9675 7.49173 2.94157 7.50925 2.91587 7.527C2.89321 7.54312 2.87055 7.55901 2.84812 7.57489C2.82289 7.59311 2.79766 7.61157 2.7729 7.63026C2.75071 7.64684 2.72852 7.66366 2.70656 7.68071C2.68226 7.69964 2.65797 7.71903 2.63391 7.73842C2.61218 7.75594 2.59069 7.77346 2.56943 7.79121C2.5456 7.81107 2.52224 7.83139 2.49888 7.85171C2.47809 7.86994 2.45707 7.88816 2.43651 7.90661C2.41338 7.9274 2.39096 7.94866 2.36806 7.96969C2.34797 7.98861 2.32765 8.0073 2.30779 8.02669C2.2856 8.04841 2.26364 8.07037 2.24168 8.09233C2.22229 8.11195 2.2029 8.13111 2.18375 8.15097C2.16202 8.17362 2.14076 8.19675 2.11927 8.21988C2.10105 8.23974 2.08236 8.25959 2.06437 8.27968C2.04265 8.30351 2.02186 8.32827 2.00083 8.3528C1.98354 8.37266 1.96626 8.39228 1.94944 8.4126C1.92748 8.439 1.90622 8.46587 1.88496 8.4925C1.86978 8.51165 1.85413 8.53034 1.83941 8.5495C1.81301 8.58337 1.78755 8.61794 1.76209 8.65252C1.7476 8.67238 1.73312 8.692 1.71887 8.71185C1.6906 8.7518 1.66234 8.79198 1.63524 8.83263C1.62215 8.85202 1.61001 8.87188 1.59716 8.8915C1.578 8.92117 1.55861 8.9506 1.53993 8.98074C1.52638 9.0027 1.51353 9.02489 1.50021 9.04708C1.48339 9.07535 1.46634 9.10338 1.44999 9.13188C1.43667 9.15524 1.42406 9.17883 1.41097 9.20243C1.39556 9.23046 1.38014 9.25826 1.36519 9.28606C1.35257 9.31036 1.34043 9.33488 1.32804 9.35941C1.31379 9.38745 1.29954 9.41548 1.28599 9.44374C1.27408 9.46874 1.26263 9.49374 1.25095 9.51873C1.23787 9.54723 1.22479 9.57573 1.21217 9.60447C1.20096 9.6297 1.19022 9.65516 1.17947 9.68086C1.16756 9.70959 1.15564 9.73856 1.14373 9.76776C1.13345 9.79369 1.1234 9.81962 1.11383 9.84555C1.10261 9.87498 1.09163 9.90418 1.08112 9.93385C1.07178 9.96002 1.06267 9.98618 1.05379 10.0126C1.04351 10.0425 1.0337 10.0724 1.02412 10.1023C1.01571 10.1287 1.00754 10.1553 0.999593 10.1819C0.990482 10.2123 0.981605 10.2427 0.973195 10.2733C0.96572 10.2999 0.958478 10.3265 0.95147 10.3534C0.943294 10.3842 0.935818 10.4155 0.928109 10.4466C0.921802 10.4733 0.915261 10.4999 0.90942 10.5267C0.902412 10.5585 0.895871 10.5903 0.88933 10.6225C0.883957 10.6489 0.878584 10.6756 0.873445 10.7022C0.867605 10.7349 0.861998 10.7676 0.856625 10.8005C0.852187 10.8267 0.847748 10.8529 0.843777 10.8793C0.838871 10.9129 0.834666 10.947 0.830228 10.9809C0.826957 11.0066 0.823453 11.032 0.82065 11.0577C0.816679 11.0935 0.813642 11.1295 0.810371 11.1652C0.808269 11.1893 0.805699 11.2131 0.80383 11.2374C0.800793 11.2776 0.798924 11.318 0.797056 11.3582C0.795888 11.3782 0.800793 11.3986 0.800093 11.4187C0.797756 11.4792 0.802896 11.5401 0.802896 11.6009V22.0594C0.802195 23.5429 2.00293 24.7466 3.48634 24.7499H15.625C17.1119 24.7476 18.318 23.545 18.3246 22.058V11.6016C18.3271 10.6188 18.0393 9.65726 17.4971 8.83777C17.0206 8.11312 16.3555 7.53214 15.5736 7.15697ZM3.97177 1.42659H15.155V4.95499H3.97177V1.42659ZM17.3677 22.0566C17.3621 23.0163 16.5833 23.7919 15.6236 23.793H3.48774C2.53112 23.7914 1.75718 23.0144 1.75905 22.058V11.6013C1.75811 10.759 2.02139 9.93759 2.51196 9.25266C2.5685 9.17393 2.6248 9.09731 2.68693 9.02302C2.718 8.98588 2.74814 8.93495 2.78038 8.89897C3.17564 8.46283 3.66014 8.11709 4.20117 7.88535H4.20538C4.38713 7.82882 4.5107 7.66039 4.51 7.47V5.91184H14.6168V7.47023C14.6161 7.66646 14.7354 7.84284 14.9179 7.91526C16.384 8.49413 17.3677 9.97567 17.3677 11.6016V22.0566Z" fill="#4A4A4A"/>
<path d="M14.4361 13.8658H11.5057V10.9355C11.5057 10.6712 11.2915 10.457 11.0273 10.457H8.09695C7.83274 10.457 7.61852 10.6712 7.61852 10.9355V13.8658H4.74796C4.48375 13.8658 4.26953 14.08 4.26953 14.3442V17.0952C4.26953 17.3594 4.48375 17.5736 4.74796 17.5736H7.61852V20.504C7.61852 20.7682 7.83274 20.9824 8.09695 20.9824H11.0273C11.2915 20.9824 11.5057 20.7682 11.5057 20.504V17.5736H14.4361C14.7003 17.5736 14.9145 17.3594 14.9145 17.0952V14.3442C14.9145 14.08 14.7003 13.8658 14.4361 13.8658ZM13.9577 16.6168H11.0273C10.7631 16.6168 10.5489 16.831 10.5489 17.0952V20.0256H8.57537V17.0952C8.57537 16.831 8.36115 16.6168 8.09695 16.6168H5.22638V14.8227H8.09695C8.36115 14.8227 8.57537 14.6085 8.57537 14.3442V11.4139H10.5489V14.3442C10.5489 14.6085 10.7631 14.8227 11.0273 14.8227H13.9577V16.6168Z" fill="#4A4A4A"/>
</svg>
