<svg width="25" height="25" viewBox="0 0 25 25" fill="none" xmlns="http://www.w3.org/2000/svg">
<circle cx="12.5" cy="12.5" r="12.5" fill="#1C1C1C"/>
<path d="M12.5002 8.16699C13.0976 8.16699 13.5835 8.65284 13.5835 9.25033C13.5835 9.84782 13.0976 10.3337 12.5002 10.3337C11.9027 10.3337 11.4168 9.84782 11.4168 9.25033C11.4168 8.65284 11.9027 8.16699 12.5002 8.16699ZM12.5002 9.79199C12.7987 9.79199 13.0418 9.54893 13.0418 9.25033C13.0418 8.95174 12.7987 8.70867 12.5002 8.70867C12.2016 8.70867 11.9585 8.95174 11.9585 9.25033C11.9585 9.54893 12.2016 9.79199 12.5002 9.79199Z" fill="white"/>
<path d="M11.6875 10.875H13.8542C14.0039 10.875 14.125 10.9961 14.125 11.1458V12.2292C14.125 12.3789 14.0039 12.5 13.8542 12.5H13.5833V16.5625C13.5833 16.7122 13.4622 16.8334 13.3125 16.8334H11.6875C11.5378 16.8334 11.4166 16.7122 11.4166 16.5625V11.1458C11.4167 10.9961 11.5378 10.875 11.6875 10.875ZM11.9583 16.2917H13.0417V12.2292C13.0417 12.0795 13.1628 11.9583 13.3125 11.9583H13.5834V11.4167H11.9584V16.2917H11.9583Z" fill="white"/>
<path d="M12.5 6C16.084 6 19 8.91596 19 12.5C19 16.084 16.084 19 12.5 19C8.91596 19 6 16.084 6 12.5C6 8.91596 8.91596 6 12.5 6ZM12.5 18.4583C15.7854 18.4583 18.4583 15.7854 18.4583 12.5C18.4583 9.21455 15.7854 6.54166 12.5 6.54166C9.21455 6.54166 6.54166 9.21455 6.54166 12.5C6.54166 15.7854 9.21455 18.4583 12.5 18.4583Z" fill="white"/>
</svg>
