<svg width="25" height="25" viewBox="0 0 25 25" fill="none" xmlns="http://www.w3.org/2000/svg">
<circle cx="12.5" cy="12.5" r="12.5" fill="#1C1C1C"/>
<path d="M17.1061 6.33622C16.8885 6.23601 16.6322 6.27497 16.4542 6.43527L15.6094 7.18336L14.4599 6.15516C14.229 5.94828 13.8794 5.94828 13.6485 6.15516L12.5 7.18238L11.3512 6.15516C11.1202 5.94828 10.7706 5.94828 10.5396 6.15516L9.38982 7.18336L8.54417 6.4353C8.29465 6.21351 7.91255 6.23601 7.69076 6.48553C7.59146 6.59725 7.53707 6.74181 7.5381 6.89128V18.1087C7.53612 18.4431 7.80555 18.7157 8.13989 18.7177C8.28938 18.7185 8.43394 18.6641 8.54569 18.5647L9.39055 17.8166L10.54 18.8448C10.7709 19.0517 11.1205 19.0517 11.3515 18.8448L12.5 17.8175L13.6486 18.8447C13.8796 19.0516 14.2293 19.0516 14.4603 18.8447L15.61 17.8166L16.4557 18.5646C16.7051 18.7865 17.0872 18.7641 17.3091 18.5146C17.4084 18.4028 17.4628 18.2582 17.4618 18.1086V6.89128C17.4648 6.6518 17.325 6.43354 17.1061 6.33622ZM16.0121 17.3605C15.7811 17.156 15.4335 17.1569 15.2036 17.3627L14.0542 18.3909L12.9057 17.3637C12.6747 17.1568 12.3251 17.1568 12.0941 17.3637L10.9455 18.3909L9.79559 17.3627C9.56662 17.1569 9.21959 17.156 8.98949 17.3605L8.14692 18.1084V16.4857L8.14387 6.89143L8.98781 7.63933C9.21877 7.84392 9.5664 7.84301 9.79626 7.63717L10.9457 6.609L12.0942 7.63622C12.3252 7.8431 12.6748 7.8431 12.9058 7.63622L14.0544 6.609L15.2043 7.63717C15.4333 7.84298 15.7803 7.84392 16.0104 7.63936L16.853 6.89128V14.6023L16.856 18.1084L16.0121 17.3605Z" fill="white"/>
<path d="M15.3856 12.1953H9.61447C9.44634 12.1953 9.31006 12.3316 9.31006 12.4997C9.31006 12.6679 9.44634 12.8041 9.61447 12.8041H15.3856C15.5537 12.8041 15.69 12.6679 15.69 12.4997C15.69 12.3316 15.5537 12.1953 15.3856 12.1953Z" fill="white"/>
<path d="M12.646 10.3691H9.61447C9.44634 10.3691 9.31006 10.5054 9.31006 10.6735C9.31006 10.8417 9.44634 10.978 9.61447 10.978H12.646C12.8141 10.978 12.9504 10.8417 12.9504 10.6735C12.9504 10.5054 12.814 10.3691 12.646 10.3691Z" fill="white"/>
<path d="M15.3856 14.0215H9.61447C9.44634 14.0215 9.31006 14.1578 9.31006 14.3259C9.31006 14.494 9.44634 14.6303 9.61447 14.6303H15.3856C15.5537 14.6303 15.69 14.494 15.69 14.3259C15.69 14.1578 15.5537 14.0215 15.3856 14.0215Z" fill="white"/>
</svg>
