<svg width="25" height="25" viewBox="0 0 25 25" fill="none" xmlns="http://www.w3.org/2000/svg">
<circle cx="12.5" cy="12.5" r="12.5" fill="#1C1C1C"/>
<g clip-path="url(#clip0)">
<path d="M11.5081 8.03906C11.7074 7.99651 11.8498 7.82056 11.8499 7.61684V6.51057C11.8501 6.38153 11.7929 6.25914 11.6938 6.17642C11.5969 6.09489 11.4687 6.06058 11.344 6.08279C8.09636 6.66985 5.80406 9.59751 6.01323 12.8912C6.22251 16.1848 8.86661 18.7989 12.1624 18.9704C12.2767 18.9762 12.3906 18.9791 12.5039 18.9791C13.8343 18.9828 15.1333 18.5741 16.2219 17.809C16.3254 17.7365 16.3915 17.6219 16.4022 17.4959C16.4138 17.3674 16.3677 17.2405 16.2765 17.1492L15.4929 16.366C15.3483 16.2212 15.1218 16.1979 14.9507 16.3103C13.4211 17.2894 11.4555 17.2647 9.95077 16.2475C8.44607 15.2303 7.6907 13.4154 8.02921 11.6309C8.36782 9.84656 9.73544 8.4345 11.5081 8.03906ZM7.545 13.0164C7.73018 14.7317 8.78984 16.229 10.3459 16.9741C11.902 17.7192 13.7329 17.606 15.1852 16.6748L15.068 16.4925L15.1865 16.6723L15.9734 17.454C14.8675 18.2297 13.533 18.6114 12.1843 18.5378C9.10901 18.3777 6.64165 15.939 6.44547 12.866C6.24929 9.7928 8.38666 7.06023 11.4166 6.51057L11.4139 7.61615C8.93861 8.17048 7.27374 10.4943 7.545 13.0164Z" fill="white"/>
<path d="M13.6559 6.08284C13.5313 6.06052 13.403 6.09484 13.3061 6.17657C13.207 6.25919 13.1497 6.38168 13.1499 6.51071V7.61679C13.15 7.82061 13.2926 7.99666 13.492 8.03911C15.5654 8.5128 17.0394 10.3522 17.0499 12.4791C17.0503 13.3368 16.807 14.1769 16.3478 14.9014C16.2378 15.0724 16.2618 15.2971 16.4057 15.4409L17.1908 16.2263C17.2724 16.308 17.3832 16.354 17.4987 16.3539C17.5117 16.3539 17.5251 16.3532 17.5385 16.3521C17.6649 16.341 17.7797 16.2741 17.8518 16.1698C19.1047 14.3518 19.3493 12.0221 18.5013 9.98348C17.6533 7.94489 15.8286 6.476 13.6559 6.08284ZM17.4972 15.9197L16.7118 15.1345L16.714 15.1329C17.217 14.3392 17.4838 13.4188 17.4832 12.4791C17.4717 10.1487 15.8555 8.13373 13.5832 7.61679L13.5796 6.50942C15.6065 6.8763 17.3088 8.2464 18.1005 10.148C18.8922 12.0496 18.6649 14.2229 17.4972 15.9197Z" fill="white"/>
</g>
<defs>
<clipPath id="clip0">
<rect x="6" y="6" width="13" height="13" fill="white"/>
</clipPath>
</defs>
</svg>
