<svg width="25" height="25" viewBox="0 0 25 25" fill="none" xmlns="http://www.w3.org/2000/svg">
<circle cx="12.5" cy="12.5" r="12.5" fill="#1C1C1C"/>
<g clip-path="url(#clip0)">
<path d="M15.8458 17.1669C15.698 17.1518 15.5642 17.2623 15.5506 17.4112L15.5062 17.8868L12.5309 17.5472C12.3858 17.5293 12.2477 17.6365 12.2308 17.7855C12.2135 17.9339 12.3207 18.0682 12.4692 18.085L15.7191 18.4566C15.7294 18.4577 15.7397 18.4582 15.75 18.4582C15.8117 18.4582 15.8724 18.4371 15.9206 18.3976C15.9769 18.3521 16.0127 18.2855 16.0197 18.2129L16.0901 17.4621C16.1042 17.3132 15.9942 17.181 15.8458 17.1669Z" fill="white"/>
<path d="M12.5321 8.77405L7.38644 8.16848C7.2326 8.1506 7.10369 8.25622 7.08529 8.4041L6.00197 17.0705C5.99331 17.142 6.01335 17.2146 6.05831 17.2715C6.10272 17.3284 6.16828 17.3652 6.24031 17.3733L9.14898 17.7059C9.15983 17.707 9.16958 17.7075 9.18039 17.7075C9.3158 17.7075 9.43335 17.6057 9.44904 17.4676C9.46638 17.3192 9.35914 17.1848 9.21071 17.1681L6.57396 16.8663L7.59009 8.73777L12.4688 9.31191C12.6237 9.33195 12.7526 9.22307 12.7694 9.07467C12.7872 8.92624 12.6806 8.79137 12.5321 8.77405Z" fill="white"/>
<path d="M15.3998 8.51721C15.2942 8.41158 15.1224 8.41158 15.0168 8.51721L13.6627 9.87133C13.5571 9.97695 13.5571 10.1487 13.6627 10.2543C13.7158 10.3068 13.7851 10.3334 13.8545 10.3334C13.9238 10.3334 13.9931 10.3068 14.0457 10.2543L15.3998 8.90016C15.5054 8.79451 15.5054 8.62283 15.3998 8.51721Z" fill="white"/>
<path d="M18.998 17.0709L17.9147 8.40448C17.8963 8.25661 17.7598 8.15152 17.6141 8.16886L16.8677 8.25661C16.7187 8.27395 16.6126 8.40882 16.6304 8.55723C16.6478 8.70563 16.7832 8.81288 16.931 8.79447L17.4104 8.73813L18.4265 16.8656L9.49413 17.8866L8.73203 9.75861L15.3472 8.98078C15.4962 8.96344 15.6024 8.82857 15.5845 8.68017C15.5671 8.53176 15.4296 8.4218 15.2839 8.44292L8.40594 9.25218C8.26023 9.26896 8.15461 9.39952 8.16816 9.5463L8.98064 18.2127C8.98768 18.2848 9.02343 18.3519 9.07977 18.3974C9.12798 18.437 9.18864 18.4581 9.25039 18.4581C9.26067 18.4581 9.27098 18.4576 9.28073 18.457L18.7597 17.3737C18.8317 17.365 18.8973 17.3287 18.9417 17.2719C18.9866 17.215 19.0072 17.1424 18.998 17.0709Z" fill="white"/>
<path d="M16.0211 6.54187C15.2742 6.54187 14.667 7.1496 14.667 7.89599C14.667 8.64238 15.2742 9.25012 16.0211 9.25012C16.768 9.25012 17.3752 8.64238 17.3752 7.89599C17.3752 7.1496 16.7681 6.54187 16.0211 6.54187ZM16.0211 8.70847C15.5732 8.70847 15.2086 8.34395 15.2086 7.89599C15.2086 7.44804 15.5732 7.08351 16.0211 7.08351C16.4691 7.08351 16.8336 7.44804 16.8336 7.89599C16.8336 8.34395 16.4691 8.70847 16.0211 8.70847Z" fill="white"/>
</g>
<defs>
<clipPath id="clip0">
<rect x="6" y="6" width="13" height="13" fill="white"/>
</clipPath>
</defs>
</svg>
