<svg width="25" height="25" viewBox="0 0 25 25" fill="none" xmlns="http://www.w3.org/2000/svg">
<circle cx="12.5" cy="12.5" r="12.5" fill="#1C1C1C"/>
<path d="M13.6098 14.9513H11.3894V12.2868H10.3083L12.4996 9L14.6909 12.2868H13.6098V14.9513ZM13.8609 11.8428L12.4996 9.80067L11.1383 11.8428H11.8335V14.5072H13.1657V11.8428H13.8609Z" fill="white"/>
<path d="M19 11.7815L18.2342 15.611L17.4817 14.8585L15.593 16.8224L13.9593 15.1887L15.9232 13.3L15.1707 12.5475L19 11.7815ZM14.5932 15.1949L15.5866 16.1883L17.4753 14.2244L17.9613 14.7102L18.4338 12.3477L16.0711 12.8202L16.5569 13.3062L14.5932 15.1949Z" fill="white"/>
<path d="M11.0405 15.1887L9.40677 16.8224L7.51811 14.8585L6.76563 15.611L5.99982 11.7815L9.82931 12.5473L9.07682 13.2998L11.0405 15.1887ZM6.56579 12.3477L7.03829 14.7104L7.52433 14.2246L9.41299 16.1885L10.4064 15.1951L8.44246 13.3065L8.92828 12.8204L6.56579 12.3477Z" fill="white"/>
</svg>
