<svg width="25" height="25" viewBox="0 0 25 25" fill="none" xmlns="http://www.w3.org/2000/svg">
<circle cx="12.5" cy="12.5" r="12.5" fill="#1C1C1C"/>
<path d="M9.58667 16.2889L12.2193 17.9195C12.3911 18.0268 12.6182 18.0268 12.79 17.9195L15.4146 16.2893C16.3264 15.7257 16.9998 14.5475 16.9998 13.5484V10.2491C17.0053 10.0748 16.8991 9.91302 16.7275 9.83374L12.7192 8.04744C12.5785 7.98419 12.4135 7.98419 12.2729 8.04744L8.27198 9.82877C8.10045 9.90805 7.99449 10.0698 8.00022 10.2442V13.5484C8.00022 14.5475 8.67514 15.7257 9.58667 16.2889ZM9.02145 10.5329L12.5 8.97786L15.9786 10.5371V13.5484C15.9786 14.2453 15.4744 15.1317 14.8384 15.5245L12.494 16.9771L10.1589 15.5247C9.52284 15.1314 9.02145 14.2453 9.02145 13.5484V10.5329Z" fill="white"/>
<path d="M11.8646 13.8998C11.9346 13.9634 12.0303 13.9995 12.1304 14H12.1313C12.231 13.9997 12.3265 13.9641 12.3967 13.9011L13.8899 12.571C14.0367 12.4405 14.0367 12.2286 13.8901 12.0981C13.7436 11.9673 13.5057 11.9673 13.3591 12.0979L12.1326 13.1899L11.6423 12.7491C11.4962 12.6179 11.2585 12.6169 11.1112 12.7469C10.9638 12.877 10.9629 13.0887 11.1088 13.2199L11.8646 13.8998Z" fill="white"/>
</svg>
