<svg width="25" height="25" viewBox="0 0 25 25" fill="none" xmlns="http://www.w3.org/2000/svg">
<circle cx="12.5" cy="12.5" r="12.5" fill="#1C1C1C"/>
<path d="M16.9129 12.2729C16.8806 12.1483 16.8364 12.027 16.781 11.9108C17.2606 10.9049 16.8341 9.70067 15.8282 9.22101C15.712 9.16558 15.5908 9.12142 15.4661 9.0891C15.2138 8.08558 14.2378 7.44003 13.2156 7.60046C12.8361 7.21576 12.3181 6.99944 11.7778 7.00001H11.489C10.9244 6.99799 10.3853 7.23454 10.0046 7.65137C8.93117 7.35312 7.81925 7.98151 7.52099 9.05491C7.51785 9.06628 7.51478 9.07766 7.51182 9.08907C6.43218 9.36996 5.78468 10.4729 6.06557 11.5525C6.12699 11.7886 6.23066 12.0116 6.37159 12.2108C6.31714 12.3947 6.28944 12.5856 6.28933 12.7774C6.29009 13.5738 6.75817 14.2958 7.48499 14.6214C7.69294 15.6786 8.69726 16.3841 9.76235 16.2211C10.1418 16.6058 10.6598 16.8221 11.2001 16.8215H11.489C12.0535 16.8235 12.5926 16.587 12.9733 16.1702C14.0467 16.4684 15.1587 15.84 15.4569 14.7666C15.4601 14.7552 15.4631 14.7439 15.4661 14.7325C16.5448 14.4528 17.1926 13.3516 16.9129 12.2729ZM16.2048 12.0555C16.6044 12.7432 16.3708 13.6246 15.6831 14.0242C15.5272 14.1148 15.3557 14.1752 15.1775 14.2025C15.053 14.2218 14.9554 14.3194 14.9362 14.4439C14.8162 15.2297 14.0818 15.7696 13.296 15.6496C13.1889 15.6332 13.0839 15.6048 12.9832 15.5649C12.862 15.5173 12.7239 15.5566 12.6459 15.661C12.3752 16.0285 11.9454 16.245 11.4889 16.2438H11.2C10.7704 16.2442 10.3631 16.0529 10.089 15.7221C10.0189 15.6377 9.907 15.6004 9.80027 15.6256C9.03365 15.8162 8.25764 15.3493 8.06703 14.5827C8.05063 14.5168 8.03897 14.4498 8.03211 14.3822C8.01983 14.2714 7.94483 14.1775 7.83943 14.141C7.08791 13.8837 6.68729 13.0659 6.94459 12.3144C6.95077 12.2963 6.95734 12.2784 6.96424 12.2606C7.00193 12.1626 6.98341 12.0518 6.91589 11.9715C6.40376 11.3616 6.48306 10.452 7.09296 9.93989C7.29499 9.77025 7.5397 9.65929 7.8004 9.61907C7.92487 9.59982 8.0225 9.50219 8.04175 9.37772C8.16174 8.59185 8.89604 8.05203 9.68194 8.17202C9.78904 8.18838 9.89397 8.21676 9.99471 8.25666C10.1159 8.30447 10.2541 8.26511 10.332 8.16061C10.6027 7.79306 11.0325 7.57659 11.489 7.57775H11.7778C12.2074 7.57735 12.6148 7.76865 12.8889 8.09948C12.959 8.18387 13.0709 8.22127 13.1776 8.19596C13.9401 8.00343 14.7143 8.46551 14.9068 9.22801C14.9193 9.27734 14.9291 9.32731 14.9362 9.37768C14.9554 9.50215 15.0531 9.59979 15.1775 9.61903C15.9637 9.73942 16.5035 10.4743 16.3831 11.2605C16.3558 11.4387 16.2954 11.6102 16.2048 11.766C16.153 11.8556 16.153 11.966 16.2048 12.0555Z" fill="white"/>
<path d="M16.9777 14.9453C16.3396 14.9453 15.8223 15.4626 15.8223 16.1008C15.8223 16.7389 16.3396 17.2563 16.9777 17.2563C17.6159 17.2563 18.1332 16.7389 18.1332 16.1008C18.1325 15.463 17.6156 14.9461 16.9777 14.9453ZM16.9777 16.6785C16.6586 16.6785 16.4 16.4199 16.4 16.1008C16.4 15.7817 16.6586 15.523 16.9777 15.523C17.2968 15.523 17.5555 15.7817 17.5555 16.1008C17.5551 16.4197 17.2967 16.6782 16.9777 16.6785Z" fill="white"/>
<path d="M18.1332 17.9766C17.6546 17.9766 17.2666 18.3645 17.2666 18.8432C17.2666 19.3218 17.6546 19.7098 18.1332 19.7098C18.6118 19.7098 18.9998 19.3218 18.9998 18.8432C18.9993 18.3648 18.6116 17.9771 18.1332 17.9766ZM18.1332 19.132C17.9737 19.132 17.8443 19.0027 17.8443 18.8432C17.8443 18.6836 17.9737 18.5543 18.1332 18.5543C18.2927 18.5543 18.4221 18.6836 18.4221 18.8432C18.4219 19.0026 18.2927 19.1319 18.1332 19.132Z" fill="white"/>
<path d="M13.4907 10.4657C13.3471 9.4708 12.4945 8.73246 11.4894 8.73242C10.3731 8.73369 9.46855 9.63824 9.46729 10.7545H10.045C10.045 9.95682 10.6917 9.31016 11.4894 9.31016C12.287 9.31016 12.9337 9.95682 12.9337 10.7545C12.9337 11.5522 12.287 12.1988 11.4894 12.1988C11.3298 12.1988 11.2005 12.3282 11.2005 12.4877V14.5098H11.7782V12.756C12.8836 12.5964 13.6503 11.571 13.4907 10.4657Z" fill="white"/>
</svg>
