<svg width="25" height="25" viewBox="0 0 25 25" fill="none" xmlns="http://www.w3.org/2000/svg">
<circle cx="12.5" cy="12.5" r="12.5" fill="#1C1C1C"/>
<path d="M12.5 6C9.55994 6 7.16797 8.39198 7.16797 11.332C7.16797 13.7025 8.72999 15.7807 10.9878 16.4464L12.1593 18.7894C12.2239 18.9185 12.3557 19 12.5 19C12.6442 19 12.7761 18.9185 12.8406 18.7894L14.0121 16.4465C16.27 15.7808 17.832 13.7026 17.832 11.332C17.832 8.39198 15.4401 6 12.5 6V6ZM13.6516 15.7561C13.5451 15.7836 13.4558 15.8559 13.4066 15.9543L12.5 17.7676L11.5934 15.9543C11.5442 15.8559 11.4549 15.7836 11.3484 15.756C9.33549 15.2337 7.92969 13.4145 7.92969 11.332C7.92969 8.81191 9.97988 6.76172 12.5 6.76172C15.0201 6.76172 17.0703 8.81191 17.0703 11.332C17.0703 13.4145 15.6645 15.2337 13.6516 15.7561Z" fill="white"/>
<path d="M12.5 9.80859C11.6599 9.80859 10.9766 10.492 10.9766 11.332C10.9766 12.1721 11.6599 12.8555 12.5 12.8555C13.3401 12.8555 14.0234 12.1721 14.0234 11.332C14.0234 10.492 13.3401 9.80859 12.5 9.80859ZM12.5 12.0938C12.08 12.0938 11.7383 11.7521 11.7383 11.332C11.7383 10.912 12.08 10.5703 12.5 10.5703C12.92 10.5703 13.2617 10.912 13.2617 11.332C13.2617 11.7521 12.92 12.0938 12.5 12.0938Z" fill="white"/>
</svg>
