<svg width="25" height="25" viewBox="0 0 25 25" fill="none" xmlns="http://www.w3.org/2000/svg">
<circle cx="12.5" cy="12.5" r="12.5" fill="#1C1C1C"/>
<g clip-path="url(#clip0)">
<path d="M9.92712 11.4173H6.40625C6.182 11.4173 6 11.2353 6 11.011V7.49023C6 7.26598 6.182 7.08398 6.40625 7.08398C6.6305 7.08398 6.8125 7.26598 6.8125 7.49023V10.6048H9.92712C10.1514 10.6048 10.3334 10.7868 10.3334 11.011C10.3334 11.2353 10.1514 11.4173 9.92712 11.4173Z" fill="white"/>
<path d="M12.5008 19C10.7653 19 9.13323 18.3235 7.90585 17.0949C7.74706 16.9362 7.74706 16.6789 7.90585 16.5202C8.06504 16.361 8.32231 16.3621 8.48051 16.5202C9.55465 17.5955 10.9819 18.1875 12.5008 18.1875C15.637 18.1875 18.1883 15.6362 18.1883 12.5C18.1883 9.36376 15.637 6.8125 12.5008 6.8125C9.81302 6.8125 7.41609 8.619 6.80185 11.1079C6.7477 11.3262 6.5289 11.4589 6.31 11.4053C6.0923 11.3512 5.95959 11.1312 6.01266 10.9135C6.71576 8.06596 9.44417 6 12.5008 6C16.085 6 19.0008 8.91576 19.0008 12.5C19.0008 16.0842 16.085 19 12.5008 19Z" fill="white"/>
</g>
<defs>
<clipPath id="clip0">
<rect x="6" y="6" width="13" height="13" fill="white"/>
</clipPath>
</defs>
</svg>
