<svg width="25" height="25" viewBox="0 0 25 25" fill="none" xmlns="http://www.w3.org/2000/svg">
<circle cx="12.5" cy="12.5" r="12.5" fill="#1C1C1C"/>
<path d="M17.2762 6.89771H12.8593C12.13 6.90316 11.5413 7.49483 11.5396 8.22402V9.39902C11.5396 9.5808 11.6869 9.7281 11.8686 9.7281C12.0504 9.7281 12.1978 9.5808 12.1978 9.39902V8.22742C12.1984 7.86128 12.4932 7.56349 12.8593 7.55927H17.2762C17.6382 7.55927 17.9245 7.86539 17.9245 8.22742V16.7385C17.9271 16.9119 17.8605 17.0792 17.7395 17.2033C17.6185 17.3276 17.4528 17.3984 17.2794 17.4H12.8593C12.4944 17.3989 12.199 17.1034 12.1978 16.7385V15.5865C12.1978 15.4049 12.0504 15.2574 11.8686 15.2574C11.6869 15.2574 11.5396 15.4049 11.5396 15.5865V16.7353C11.5428 17.4627 12.1318 18.0516 12.8593 18.055H17.2762C18.0004 18.0521 18.5852 17.4628 18.5828 16.7385V8.22402C18.5828 7.49998 18.0003 6.89771 17.2762 6.89771Z" fill="white"/>
<path d="M14.515 11.8114H6.72459C6.54281 11.8114 6.39551 11.9588 6.39551 12.1406C6.39551 12.3224 6.54281 12.4697 6.72459 12.4697H14.5874L12.899 14.4214C12.7781 14.5586 12.7915 14.7679 12.9286 14.8887C13.0658 15.0096 13.2752 14.9963 13.396 14.8592L15.5254 12.4072C15.5929 12.3524 15.636 12.273 15.6445 12.1865C15.6532 12.0998 15.6269 12.0133 15.5715 11.9464C15.5543 11.9252 15.5344 11.9064 15.5122 11.8904L13.3795 9.76094C13.3181 9.69938 13.2346 9.66479 13.1474 9.66479C13.0604 9.66479 12.9769 9.69938 12.9155 9.76094C12.8541 9.82043 12.8194 9.90196 12.8188 9.98739C12.8182 10.0727 12.8518 10.1549 12.9122 10.2152L12.9155 10.2185L14.515 11.8114Z" fill="white"/>
</svg>
