<svg width="25" height="25" viewBox="0 0 25 25" fill="none" xmlns="http://www.w3.org/2000/svg">
<circle cx="12.5" cy="12.5" r="12.5" fill="#1C1C1C"/>
<path d="M12.5985 12.8773C11.832 12.8773 11.2107 12.2559 11.2107 11.4894C11.2107 10.7229 11.832 10.1016 12.5985 10.1016C13.365 10.1016 13.9863 10.7229 13.9863 11.4894C13.9854 12.2555 13.3646 12.8763 12.5985 12.8773ZM12.5985 10.6411C12.1285 10.6411 11.7476 11.0221 11.7476 11.4921C11.7476 11.9621 12.1285 12.3431 12.5985 12.3431C13.0685 12.3431 13.4494 11.9621 13.4494 11.4921C13.4493 11.0222 13.0684 10.6413 12.5985 10.6411Z" fill="white"/>
<path d="M12.5985 13.3907C13.1664 13.3865 13.7113 13.6144 14.1072 14.0215C14.5099 14.4323 14.73 14.9906 14.73 15.5973C14.7296 15.7454 14.6097 15.8653 14.4615 15.8658H10.7356C10.5874 15.8653 10.4675 15.7454 10.4671 15.5973C10.4671 14.9906 10.6872 14.4323 11.0899 14.0215C11.4857 13.6144 12.0307 13.3865 12.5985 13.3907ZM14.1743 15.3289C14.1284 14.9779 13.9701 14.6512 13.7233 14.3974C13.4262 14.0968 13.0211 13.9276 12.5985 13.9276C12.176 13.9276 11.7709 14.0968 11.4738 14.3974C11.2275 14.6515 11.0694 14.978 11.0228 15.3289H14.1743Z" fill="white"/>
<path d="M9.37714 6.4082H15.8199C16.561 6.40854 17.1619 7.00927 17.1621 7.75044V17.2535C17.1619 17.9946 16.561 18.5954 15.8199 18.5957H9.37714C8.63598 18.5954 8.03524 17.9946 8.03491 17.2535V7.75044C8.03524 7.00927 8.63598 6.40854 9.37714 6.4082ZM8.5718 17.2535C8.57306 17.6977 8.93295 18.0576 9.37714 18.0588H15.8199C16.2641 18.0576 16.624 17.6977 16.6252 17.2535V7.75044C16.624 7.30624 16.2641 6.94636 15.8199 6.9451H9.37714C8.93295 6.94636 8.57306 7.30624 8.5718 7.75044V17.2535Z" fill="white"/>
<path d="M13.7179 8.20975H11.5703C11.4221 8.20975 11.3019 8.08953 11.3019 7.9413C11.3019 7.79307 11.4221 7.67285 11.5703 7.67285H13.7179C13.8662 7.67285 13.9863 7.79307 13.9863 7.9413C13.9863 8.08953 13.8662 8.20975 13.7179 8.20975Z" fill="white"/>
</svg>
