<svg width="25" height="25" viewBox="0 0 25 25" fill="none" xmlns="http://www.w3.org/2000/svg">
<circle cx="12.5" cy="12.5" r="12.5" fill="#1C1C1C"/>
<path d="M12.4995 19C12.78 19 13.0073 18.7726 13.0073 18.4922C13.0073 18.2117 12.78 17.9844 12.4995 17.9844C12.2191 17.9844 11.9917 18.2117 11.9917 18.4922C11.9917 18.7726 12.2191 19 12.4995 19Z" fill="white"/>
<path d="M16.4857 9.95522C16.469 7.77138 14.6872 6 12.4995 6C10.3014 6 8.51318 7.78826 8.51318 9.98633C8.51318 10.2668 8.74053 10.4941 9.021 10.4941C9.30146 10.4941 9.52881 10.2668 9.52881 9.98633C9.52881 8.34828 10.8615 7.01562 12.4995 7.01562C14.1376 7.01562 15.4702 8.34828 15.4702 9.98633C15.4702 9.99537 15.4704 10.0044 15.4709 10.0133C15.4606 11.1955 14.7542 12.2565 13.6651 12.7215C12.6486 13.1555 11.9917 14.1605 11.9917 15.2818V16.4609C11.9917 16.7414 12.219 16.9688 12.4995 16.9688C12.78 16.9688 13.0073 16.7414 13.0073 16.4609V15.2818C13.0073 14.5679 13.4221 13.9296 14.0639 13.6556C15.5361 13.027 16.487 11.5868 16.4867 9.9862C16.4867 9.97579 16.4863 9.96548 16.4857 9.95522Z" fill="white"/>
</svg>
