<svg width="25" height="25" viewBox="0 0 25 25" fill="none" xmlns="http://www.w3.org/2000/svg">
<circle cx="12.5" cy="12.5" r="12.5" fill="#1C1C1C"/>
<path d="M17.6291 6.63184H9.22286C8.49332 6.63184 7.89977 7.21983 7.89977 7.94022L7.8456 15.3424H6.20508C6.08882 15.3424 6 15.4452 6 15.5614V16.5801C6 17.5338 6.76316 18.3137 7.68421 18.3564V18.3687H14.7632V18.3549C14.8158 18.3571 14.8477 18.3687 14.8838 18.3687H14.8889C15.8712 18.3629 16.663 17.5622 16.6579 16.5799V10.1055H18.7949C18.9112 10.1055 19 10.0003 19 9.8841V8.01496C19.0013 7.25529 18.3888 6.63728 17.6291 6.63184V6.63184ZM7.77631 17.9476H7.77488C7.02601 17.9476 6.42105 17.3287 6.42105 16.5799V15.7634H13.1053V16.5764C13.1036 17.0503 13.2908 17.5053 13.6254 17.8408C13.661 17.8766 13.6982 17.895 13.7362 17.9476H7.77631ZM16.2368 16.5797C16.2368 17.3287 15.6377 17.9476 14.8886 17.9476H14.8842C14.1314 17.9422 13.5246 17.3294 13.5263 16.5765V15.5614C13.5269 15.4435 13.4337 15.3465 13.3158 15.3424H8.26665L8.32083 7.94166C8.32083 7.45205 8.72543 7.05289 9.22286 7.05289H16.6352C16.3952 7.31605 16.2368 7.649 16.2368 8.02061V16.5797ZM18.5789 8.01866V9.68447H16.6579V8.0202C16.6579 7.49327 17.0962 7.05289 17.6229 7.05289H17.6288C18.1569 7.05813 18.5814 7.48895 18.5789 8.01712V8.01866Z" fill="white"/>
<path d="M10.9437 12.7721L12.0292 13.5142C12.1 13.563 12.1936 13.563 12.2645 13.5142L13.3466 12.7723C13.7225 12.5158 14.0002 11.9796 14.0002 11.525V10.0235C14.0024 9.94418 13.9586 9.87058 13.8879 9.8345L12.2353 9.02159C12.1773 8.9928 12.1092 8.9928 12.0513 9.02159L10.4017 9.83224C10.331 9.86832 10.2873 9.94192 10.2896 10.0213V11.525C10.2896 11.9796 10.5679 12.5158 10.9437 12.7721ZM10.7107 10.1527L12.1449 9.445L13.5791 10.1546V11.525C13.5791 11.8421 13.3713 12.2455 13.109 12.4242L12.1424 13.0853L11.1797 12.4243C10.9174 12.2454 10.7107 11.8421 10.7107 11.525V10.1527Z" fill="white"/>
<path d="M11.7887 11.8421C11.8279 11.8822 11.8816 11.905 11.9377 11.9053H11.9382C11.9941 11.9051 12.0477 11.8826 12.0871 11.843L12.9246 11.0052C13.0069 10.9229 13.0069 10.7895 12.9247 10.7073C12.8425 10.6249 12.7091 10.6249 12.6269 10.7072L11.9389 11.395L11.664 11.1173C11.582 11.0347 11.4487 11.0341 11.3661 11.116C11.2834 11.1979 11.2829 11.3312 11.3647 11.4139L11.7887 11.8421Z" fill="white"/>
</svg>
