<svg width="25" height="25" viewBox="0 0 25 25" fill="none" xmlns="http://www.w3.org/2000/svg">
<circle cx="12.5" cy="12.5" r="12.5" fill="#1C1C1C"/>
<g clip-path="url(#clip0)">
<path d="M6.38086 19.0001H13.2874C13.4977 19.0001 13.6682 18.8296 13.6682 18.6192V17.8067C13.6682 17.3102 13.3498 16.8868 12.9065 16.7296V16.234C12.9065 15.6311 12.416 15.1406 11.813 15.1406H7.85519C7.25227 15.1406 6.76172 15.6311 6.76172 16.234V16.7296C6.31847 16.8868 6 17.3102 6 17.8067V18.6192C6 18.8296 6.17049 19.0001 6.38086 19.0001ZM7.85519 15.9023H11.813C11.9959 15.9023 12.1448 16.0511 12.1448 16.234V16.6642H7.52353V16.234C7.52353 16.0511 7.6723 15.9023 7.85519 15.9023ZM6.76172 17.8067C6.76172 17.5967 6.93261 17.4259 7.14257 17.4259H12.5256C12.7356 17.4259 12.9065 17.5967 12.9065 17.8067V18.2384H6.76172V17.8067Z" fill="white"/>
<path d="M10.387 13.929C10.7648 14.4307 11.4822 14.5347 11.9871 14.1546C12.3233 13.9015 12.4797 13.4972 12.4339 13.1066C12.7614 13.0509 13.0779 12.9598 13.3788 12.8369L16.9448 17.5733C17.3227 18.0754 18.0403 18.1788 18.5449 17.7989C19.0481 17.42 19.1494 16.7022 18.7704 16.1988L15.2045 11.4624C15.4057 11.2072 15.5807 10.9284 15.7248 10.6292C16.0919 10.7831 16.5231 10.7396 16.8555 10.4892C17.3589 10.1103 17.4601 9.39248 17.0812 8.88914L15.2485 6.45492C14.8695 5.95157 14.1517 5.85041 13.6484 6.22938C13.3122 6.48249 13.1557 6.88666 13.2016 7.27724C11.7664 7.52172 10.5428 8.44282 9.91081 9.7543C9.54443 9.60067 9.11517 9.64232 8.77994 9.89464C8.2754 10.2745 8.17443 10.9902 8.5543 11.4947L10.387 13.929ZM14.6752 12.0259L15.1838 12.7014L14.5752 13.1595L14.0666 12.4841C14.2822 12.3489 14.4857 12.1956 14.6752 12.0259ZM18.0867 17.1904C17.9189 17.3167 17.6796 17.283 17.5533 17.1152L15.0334 13.7681L15.6419 13.31L18.1618 16.657C18.2882 16.8248 18.2544 17.064 18.0867 17.1904ZM14.1066 6.83796C14.2749 6.71121 14.514 6.74592 14.64 6.91314L16.4726 9.34736C16.5989 9.51507 16.5652 9.7544 16.3974 9.88066C16.2293 10.0073 15.9908 9.97369 15.8641 9.80548L14.0314 7.37126C13.9051 7.20344 13.9388 6.96422 14.1066 6.83796ZM13.5493 7.9973C13.7142 8.21649 14.9613 9.87302 15.1291 10.0957C14.6093 11.3593 13.4447 12.2363 12.0863 12.3866L10.5065 10.2881C11.0269 9.02303 12.1896 8.14775 13.5493 7.9973ZM9.23816 10.5032C9.40587 10.3769 9.6446 10.4099 9.77146 10.5784L11.6041 13.0126C11.6041 13.0126 11.6041 13.0126 11.6041 13.0127C11.7304 13.1804 11.6967 13.4197 11.529 13.546C11.3611 13.6723 11.1219 13.6386 10.9956 13.4708L9.16288 11.0366C9.03632 10.8684 9.06995 10.6299 9.23816 10.5032Z" fill="white"/>
</g>
<defs>
<clipPath id="clip0">
<rect x="6" y="6" width="13" height="13" fill="white"/>
</clipPath>
</defs>
</svg>
