<svg width="25" height="25" viewBox="0 0 25 25" fill="none" xmlns="http://www.w3.org/2000/svg">
<circle cx="12.5" cy="12.5" r="12.5" fill="#1C1C1C"/>
<path d="M12.769 17.05H12.2311C11.9015 17.05 11.6333 17.3183 11.6333 17.6478V17.7525C11.6333 18.082 11.9015 18.35 12.2309 18.35H12.7688C13.0984 18.35 13.3666 18.082 13.3666 17.7525V17.6478C13.3666 17.3183 13.0984 17.05 12.769 17.05ZM12.9333 17.7525C12.9333 17.843 12.8596 17.9167 12.7691 17.9167H12.2311C12.1403 17.9167 12.0666 17.843 12.0666 17.7525V17.6478C12.0666 17.557 12.1403 17.4834 12.2311 17.4834H12.7688C12.8596 17.4834 12.9333 17.557 12.9333 17.6478V17.7525Z" fill="white"/>
<path d="M15.4 6H9.59966C9.16784 6 8.81641 6.35143 8.81641 6.78325V18.2168C8.81641 18.6486 9.16784 19 9.59966 19H15.3998C15.8316 19 16.1831 18.6486 16.1831 18.217V6.78325C16.1831 6.35143 15.8317 6 15.4 6ZM15.7497 18.2168C15.7497 18.4096 15.5929 18.5667 15.4 18.5667H9.59966C9.40661 18.5667 9.24975 18.4096 9.24975 18.217V6.78325C9.24975 6.59041 9.40661 6.43334 9.59966 6.43334H15.3998C15.5929 6.43334 15.7497 6.59043 15.7497 6.78325V18.2168H15.7497Z" fill="white"/>
</svg>
