<svg width="25" height="25" viewBox="0 0 25 25" fill="none" xmlns="http://www.w3.org/2000/svg">
<circle cx="12.5" cy="12.5" r="12.5" fill="#1C1C1C"/>
<path d="M12.5985 12.8777C11.832 12.8777 11.2107 12.2562 11.2107 11.4898C11.2107 10.7233 11.832 10.1019 12.5985 10.1019C13.365 10.1019 13.9863 10.7233 13.9863 11.4898C13.9854 12.2559 13.3646 12.8767 12.5985 12.8777ZM12.5985 10.6415C12.1285 10.6415 11.7476 11.0225 11.7476 11.4925C11.7476 11.9624 12.1285 12.3435 12.5985 12.3435C13.0685 12.3435 13.4494 11.9624 13.4494 11.4925C13.4493 11.0225 13.0684 10.6417 12.5985 10.6415Z" fill="white"/>
<path d="M12.5985 13.3903C13.1664 13.3861 13.7113 13.614 14.1072 14.0212C14.5099 14.4319 14.73 14.9903 14.73 15.597C14.7296 15.745 14.6097 15.865 14.4615 15.8654H10.7356C10.5874 15.865 10.4675 15.745 10.4671 15.597C10.4671 14.9903 10.6872 14.4319 11.0899 14.0212C11.4857 13.614 12.0307 13.3861 12.5985 13.3903ZM14.1743 15.3285C14.1284 14.9775 13.9701 14.6508 13.7233 14.397C13.4262 14.0964 13.0211 13.9272 12.5985 13.9272C12.176 13.9272 11.7709 14.0964 11.4738 14.397C11.2275 14.6511 11.0694 14.9777 11.0228 15.3285H14.1743Z" fill="white"/>
<path d="M9.37714 6.40808H15.8199C16.561 6.40842 17.1619 7.00915 17.1621 7.75032V17.2533C17.1619 17.9945 16.561 18.5952 15.8199 18.5956H9.37714C8.63598 18.5952 8.03524 17.9945 8.03491 17.2533V7.75032C8.03524 7.00915 8.63598 6.40842 9.37714 6.40808ZM8.5718 17.2533C8.57306 17.6975 8.93295 18.0574 9.37714 18.0587H15.8199C16.2641 18.0574 16.624 17.6975 16.6252 17.2533V7.75032C16.624 7.30612 16.2641 6.94623 15.8199 6.94498H9.37714C8.93295 6.94623 8.57306 7.30612 8.5718 7.75032V17.2533Z" fill="white"/>
<path d="M13.7179 8.20938H11.5703C11.4221 8.20938 11.3019 8.08917 11.3019 7.94093C11.3019 7.7927 11.4221 7.67249 11.5703 7.67249H13.7179C13.8662 7.67249 13.9863 7.7927 13.9863 7.94093C13.9863 8.08917 13.8662 8.20938 13.7179 8.20938Z" fill="white"/>
</svg>
