<svg width="25" height="25" viewBox="0 0 25 25" fill="none" xmlns="http://www.w3.org/2000/svg">
<circle cx="12.5" cy="12.5" r="12.5" fill="#1C1C1C"/>
<path d="M12.4998 6C10.1105 6 8.1665 7.94398 8.1665 10.3333C8.1665 11.0506 8.34584 11.7618 8.68676 12.3926L12.2629 18.8604C12.3105 18.9466 12.4012 19 12.4998 19C12.5985 19 12.6892 18.9466 12.7368 18.8604L16.3143 12.3905C16.6539 11.7618 16.8332 11.0506 16.8332 10.3333C16.8332 7.94398 14.8892 6 12.4998 6ZM15.839 12.1305L12.4998 18.1695L9.16204 12.1329C8.86503 11.5833 8.70819 10.961 8.70819 10.3333C8.70819 8.24258 10.4091 6.54168 12.4998 6.54168C14.5906 6.54168 16.2915 8.2426 16.2915 10.3333C16.2915 10.9609 16.1347 11.5833 15.839 12.1305Z" fill="white"/>
<path d="M12.4997 8.16675C11.305 8.16675 10.333 9.13873 10.333 10.3334C10.333 11.5281 11.305 12.5001 12.4997 12.5001C13.6943 12.5001 14.6663 11.5281 14.6663 10.3334C14.6663 9.13875 13.6943 8.16675 12.4997 8.16675ZM12.4997 11.9584C11.6036 11.9584 10.8747 11.2295 10.8747 10.3334C10.8747 9.43735 11.6036 8.70843 12.4997 8.70843C13.3957 8.70843 14.1247 9.43735 14.1247 10.3334C14.1247 11.2295 13.3957 11.9584 12.4997 11.9584Z" fill="white"/>
</svg>
