<svg width="25" height="25" viewBox="0 0 25 25" fill="none" xmlns="http://www.w3.org/2000/svg">
<circle cx="12.5" cy="12.5" r="12.5" fill="#1C1C1C"/>
<path d="M9.37714 6.4082H15.8199C16.561 6.40854 17.1619 7.00927 17.1621 7.75044V17.2535C17.1619 17.9946 16.561 18.5954 15.8199 18.5957H9.37714C8.63598 18.5954 8.03524 17.9946 8.03491 17.2535V7.75044C8.03524 7.00927 8.63598 6.40854 9.37714 6.4082ZM8.5718 17.2535C8.57306 17.6977 8.93295 18.0576 9.37714 18.0588H15.8199C16.2641 18.0576 16.624 17.6977 16.6252 17.2535V7.75044C16.624 7.30624 16.2641 6.94636 15.8199 6.9451H9.37714C8.93295 6.94636 8.57306 7.30624 8.5718 7.75044V17.2535Z" fill="white"/>
<path d="M13.7179 8.20877H11.5703C11.4221 8.20877 11.3019 8.08856 11.3019 7.94032C11.3019 7.79209 11.4221 7.67188 11.5703 7.67188H13.7179C13.8662 7.67188 13.9863 7.79209 13.9863 7.94032C13.9863 8.08856 13.8662 8.20877 13.7179 8.20877Z" fill="white"/>
</svg>
