<svg width="25" height="25" viewBox="0 0 25 25" fill="none" xmlns="http://www.w3.org/2000/svg">
<circle cx="12.5" cy="12.5" r="12.5" fill="#1C1C1C"/>
<g clip-path="url(#clip0)">
<path d="M14.9121 13.7188H10.0371C9.81276 13.7188 9.63086 13.5369 9.63086 13.3125C9.63086 13.0882 9.81276 12.9062 10.0371 12.9062H14.9121C15.1364 12.9062 15.3183 13.0882 15.3183 13.3125C15.3183 13.5369 15.1364 13.7188 14.9121 13.7188Z" fill="white"/>
<path d="M17.7559 17.7813H7.19336C6.52021 17.7813 5.97461 17.2356 5.97461 16.5625V8.4375C5.97461 7.76435 6.52021 7.21875 7.19336 7.21875H10.6871C10.8968 7.21835 11.0986 7.29968 11.2493 7.44548L12.6371 8.77591C12.6577 8.79654 12.6761 8.81925 12.6919 8.84375H17.7559C18.429 8.84375 18.9746 9.38945 18.9746 10.0625V16.5625C18.9746 17.2356 18.4289 17.7813 17.7559 17.7813ZM7.19336 8.03125C6.96901 8.03125 6.78711 8.21315 6.78711 8.4375V16.5625C6.78711 16.7869 6.96901 16.9688 7.19336 16.9688H17.7559C17.9802 16.9688 18.1621 16.7869 18.1621 16.5625V10.0625C18.1621 9.83815 17.9802 9.65625 17.7559 9.65625H12.6919C12.4386 9.65625 12.1997 9.53803 12.046 9.33649L10.6871 8.03125H7.19336Z" fill="white"/>
</g>
<defs>
<clipPath id="clip0">
<rect x="6" y="6" width="13" height="13" fill="white"/>
</clipPath>
</defs>
</svg>
