<svg width="25" height="25" viewBox="0 0 25 25" fill="none" xmlns="http://www.w3.org/2000/svg">
<circle cx="12.5" cy="12.5" r="12.5" fill="#1C1C1C"/>
<g clip-path="url(#clip0)">
<path d="M12.5 6C8.91019 6 6 8.91019 6 12.5C6 16.0898 8.91019 19 12.5 19C12.6958 19 12.8909 18.9912 13.085 18.9738C13.2655 18.9576 13.4444 18.9328 13.6219 18.9018L13.6902 18.8898C16.9906 18.2738 19.2791 15.2457 18.9704 11.9024C18.6617 8.55906 15.8575 6.00106 12.5 6V6ZM11.9778 18.5437H11.9625C11.7939 18.5288 11.6267 18.5063 11.4609 18.4774C11.4514 18.4757 11.4418 18.4746 11.4325 18.4728C11.2705 18.4438 11.1101 18.4079 10.9513 18.3659L10.9129 18.356C10.758 18.314 10.6048 18.2653 10.4538 18.2111C10.4382 18.2055 10.4224 18.2005 10.4068 18.1947C10.2587 18.1403 10.1134 18.0794 9.97025 18.0135C9.95247 18.0055 9.9347 17.9979 9.91693 17.9895C9.77654 17.9245 9.6389 17.8513 9.50391 17.7743C9.48486 17.7635 9.46561 17.7527 9.44657 17.742C9.31369 17.6645 9.18388 17.5813 9.0565 17.4935C9.03725 17.4801 9.01778 17.467 8.99863 17.4536C8.87348 17.3648 8.7515 17.2706 8.63269 17.172L8.6 17.1434V15.3167C8.60159 14.001 9.66768 12.9349 10.9833 12.9333H14.0167C15.3323 12.9349 16.3984 14.001 16.4 15.3167V17.1436L16.3712 17.1676C16.2501 17.2688 16.1258 17.3644 15.9981 17.4548C15.9812 17.4666 15.964 17.4779 15.9472 17.4896C15.8183 17.5791 15.6863 17.6633 15.5511 17.7424C15.5342 17.7523 15.5168 17.7616 15.5 17.7713C15.363 17.8493 15.2237 17.9229 15.0816 17.9892C15.0653 17.9969 15.0489 18.0039 15.0324 18.0109C14.8881 18.0775 14.7415 18.1387 14.5924 18.1935C14.5776 18.199 14.5627 18.2038 14.549 18.209C14.3973 18.2634 14.2435 18.3125 14.0878 18.3548L14.0504 18.3641C13.8914 18.4061 13.7309 18.4423 13.5686 18.4713C13.5593 18.473 13.55 18.4742 13.5407 18.4757C13.3747 18.5047 13.2072 18.5272 13.0386 18.5422H13.0233C12.85 18.5571 12.6766 18.5652 12.5011 18.5652C12.3255 18.5652 12.1508 18.5586 11.9778 18.5437ZM16.8333 16.7419V15.3167C16.8315 13.7618 15.5715 12.5018 14.0167 12.5H10.9833C9.42847 12.5018 8.16847 13.7618 8.16667 15.3167V16.7417C5.83306 14.36 5.85908 10.5413 8.22485 8.19153C10.5906 5.84184 14.4094 5.84184 16.7751 8.19153C19.1409 10.5413 19.1669 14.36 16.8333 16.7417V16.7419Z" fill="white"/>
<path d="M12.5002 7.7334C11.3035 7.7334 10.3335 8.70343 10.3335 9.90006C10.3335 11.0967 11.3035 12.0667 12.5002 12.0667C13.6968 12.0667 14.6668 11.0967 14.6668 9.90006C14.6656 8.70395 13.6963 7.73467 12.5002 7.7334ZM12.5002 11.6334C11.5428 11.6334 10.7668 10.8574 10.7668 9.90006C10.7668 8.94273 11.5428 8.16673 12.5002 8.16673C13.4575 8.16673 14.2335 8.94273 14.2335 9.90006C14.2324 10.8569 13.457 11.6323 12.5002 11.6334Z" fill="white"/>
</g>
<defs>
<clipPath id="clip0">
<rect x="6" y="6" width="13" height="13" fill="white"/>
</clipPath>
</defs>
</svg>
