<svg width="25" height="25" viewBox="0 0 25 25" fill="none" xmlns="http://www.w3.org/2000/svg">
<circle cx="12.5" cy="12.5" r="12.5" fill="#1C1C1C"/>
<path d="M14.6667 6C12.2773 6 10.3333 7.94398 10.3333 10.3333C10.3333 10.6179 10.3643 10.9099 10.4254 11.2032L9.94134 11.4452C9.86356 11.4841 9.8091 11.5582 9.79509 11.6441C9.78107 11.7301 9.80938 11.8173 9.871 11.879L10.2212 12.2292L9.95035 12.5H9.52082C9.37111 12.5 9.24997 12.6211 9.24997 12.7708V13.2004L8.86701 13.5833H8.4375C8.2878 13.5833 8.16666 13.7045 8.16666 13.8542V14.2837L7.78369 14.6667H7.35416C7.20446 14.6667 7.08332 14.7878 7.08332 14.9375V15.367L6.07935 16.371C6.02856 16.4218 6 16.4905 6 16.5625V18.7292C6 18.8789 6.12114 19 6.27084 19H8.4375C8.50943 19 8.57821 18.9714 8.629 18.9207L12.7708 14.7788L13.121 15.129C13.1824 15.1906 13.2699 15.2195 13.3559 15.2049C13.4418 15.1909 13.5159 15.1364 13.5548 15.0587L13.7968 14.5746C16.5524 15.1491 19 13.0073 19 10.3333C19 7.94398 17.056 6 14.6667 6ZM13.7174 14.0002C13.5947 13.9689 13.4648 14.0271 13.4077 14.1414L13.2382 14.4802L12.9623 14.2043C12.8565 14.0985 12.6851 14.0985 12.5793 14.2043L8.32535 18.4583H6.54166V16.6747L7.54565 15.6707C7.59644 15.6199 7.625 15.5511 7.625 15.4792V15.2083H7.89584C7.96777 15.2083 8.03656 15.1798 8.08734 15.129L8.629 14.5873C8.67978 14.5365 8.70834 14.4678 8.70834 14.3958V14.125H8.97918C9.05112 14.125 9.1199 14.0964 9.17068 14.0457L9.71234 13.504C9.76312 13.4532 9.79168 13.3845 9.79168 13.3125V13.0417H10.0625C10.1344 13.0417 10.2032 13.0131 10.254 12.9623L10.7957 12.4207C10.9015 12.3149 10.9015 12.1435 10.7957 12.0377L10.5198 11.7618L10.8586 11.5923C10.9729 11.5352 11.0316 11.4061 10.9998 11.2826C10.9171 10.9609 10.875 10.6417 10.875 10.3333C10.875 8.24258 12.5759 6.54168 14.6667 6.54168C16.7574 6.54168 18.4583 8.2426 18.4583 10.3333C18.4583 12.7325 16.2195 14.6444 13.7174 14.0002Z" fill="white"/>
<path d="M16.0207 7.625C15.274 7.625 14.6665 8.23252 14.6665 8.97916C14.6665 9.7258 15.274 10.3333 16.0207 10.3333C16.7673 10.3333 17.3748 9.72582 17.3748 8.97916C17.3748 8.2325 16.7673 7.625 16.0207 7.625ZM16.0207 9.79166C15.5726 9.79166 15.2082 9.4272 15.2082 8.97916C15.2082 8.53112 15.5726 8.16666 16.0207 8.16666C16.4687 8.16666 16.8332 8.53112 16.8332 8.97916C16.8332 9.4272 16.4687 9.79166 16.0207 9.79166Z" fill="white"/>
<path d="M11.496 13.1208L7.70435 16.9125C7.59855 17.0183 7.59855 17.1897 7.70435 17.2955C7.75724 17.3484 7.82656 17.3748 7.89585 17.3748C7.96514 17.3748 8.03443 17.3484 8.08734 17.2955L11.879 13.5038C11.9848 13.398 11.9848 13.2266 11.879 13.1209C11.7732 13.0151 11.6018 13.0151 11.496 13.1208Z" fill="white"/>
</svg>
