<svg width="25" height="25" viewBox="0 0 25 25" fill="none" xmlns="http://www.w3.org/2000/svg">
<circle cx="12.5" cy="12.5" r="12.5" fill="#1C1C1C"/>
<path d="M12.5 6C8.91596 6 6 8.91596 6 12.5C6 16.084 8.91596 19 12.5 19C16.084 19 19 16.084 19 12.5C19 8.91596 16.084 6 12.5 6ZM12.5 18.1875C9.36386 18.1875 6.8125 15.6361 6.8125 12.5C6.8125 9.36386 9.36386 6.8125 12.5 6.8125C15.6361 6.8125 18.1875 9.36386 18.1875 12.5C18.1875 15.6361 15.6361 18.1875 12.5 18.1875Z" fill="white"/>
<path d="M12.9063 8.4375H12.0938V12.6682L14.6503 15.2247L15.2247 14.6503L12.9063 12.3318V8.4375Z" fill="white"/>
</svg>
