<svg width="25" height="25" viewBox="0 0 25 25" fill="none" xmlns="http://www.w3.org/2000/svg">
<circle cx="12.5" cy="12.5" r="12.5" fill="#1C1C1C"/>
<g clip-path="url(#clip0)">
<path d="M13.9707 11.2927L12.0174 13.1376L11.08 12.1732C10.9761 12.0662 10.805 12.0638 10.6981 12.1677C10.5911 12.2717 10.5887 12.4427 10.6926 12.5497L11.8169 13.7039C11.9213 13.809 12.0901 13.8126 12.1989 13.7119L14.3473 11.6855C14.3995 11.6363 14.43 11.5684 14.432 11.4967C14.434 11.4251 14.4074 11.3556 14.3581 11.3035C14.2536 11.1948 14.0812 11.1901 13.9707 11.2927Z" fill="white"/>
<path d="M12.5206 8.45312C10.2883 8.45312 8.47314 10.2683 8.47314 12.5006C8.47314 14.733 10.2883 16.5482 12.5206 16.5482C14.753 16.5482 16.5682 14.733 16.5682 12.5006C16.5682 10.2683 14.753 8.45312 12.5206 8.45312ZM12.5206 16.0063C10.5863 16.0063 9.01498 14.4323 9.01498 12.5006C9.01498 10.5689 10.5863 8.99496 12.5206 8.99496C14.4568 8.99496 16.0264 10.5645 16.0264 12.5006C16.0264 14.4367 14.4568 16.0063 12.5206 16.0063Z" fill="white"/>
<path d="M18.091 11.0106L18.1804 9.40407C18.1867 9.29623 18.128 9.19495 18.0314 9.1467L16.601 8.42337L15.8776 6.9929C15.8284 6.89712 15.7278 6.83881 15.6203 6.84389L14.0109 6.93067L12.6699 6.04469C12.5795 5.9851 12.4624 5.9851 12.3719 6.04469L11.0308 6.93067L9.42438 6.84125C9.31643 6.8349 9.21526 6.89353 9.167 6.99025L8.44357 8.42072L7.0132 9.14405C6.91732 9.19316 6.85912 9.2938 6.8642 9.40142L6.95352 11.008L6.06763 12.349C6.00805 12.4394 6.00805 12.5566 6.06763 12.647L6.95087 13.9907L6.86145 15.5973C6.8552 15.7051 6.91373 15.8064 7.01045 15.8547L8.44092 16.578L9.16425 18.0085C9.21336 18.1043 9.314 18.1626 9.42162 18.1575L11.0282 18.068L12.3692 18.9539C12.4591 19.0154 12.5774 19.0154 12.6672 18.9539L14.0083 18.068L15.6149 18.1575C15.7227 18.1637 15.8239 18.1051 15.8722 18.0085L16.5956 16.578L18.026 15.8547C18.1218 15.8055 18.1801 15.7049 18.175 15.5973L18.0856 13.9907L18.9715 12.6497C19.0311 12.5593 19.0311 12.4421 18.9715 12.3517L18.091 11.0106ZM17.5871 13.7686C17.554 13.8171 17.5387 13.8754 17.5438 13.9339L17.6277 15.4537L16.2759 16.1364C16.2243 16.1622 16.1825 16.2041 16.1567 16.2556L15.4739 17.6075L13.9541 17.5236C13.8959 17.5215 13.8384 17.5365 13.7888 17.5669L12.5209 18.4041L11.2531 17.5669C11.209 17.5371 11.1572 17.521 11.1041 17.5208H11.0905L9.57063 17.6048L8.88794 16.2529C8.86211 16.2014 8.82031 16.1596 8.76867 16.1337L7.41408 15.4537L7.4981 13.9339C7.50022 13.8757 7.48509 13.8182 7.45472 13.7686L6.61762 12.5007L7.45472 11.2328C7.48784 11.1844 7.50318 11.126 7.4981 11.0676L7.41408 9.54768L8.76602 8.86498C8.81756 8.83916 8.85936 8.79736 8.88518 8.74582L9.56788 7.39388L11.0878 7.47791C11.1459 7.47992 11.2033 7.46489 11.2531 7.43452L12.5209 6.59742L13.7888 7.43452C13.8373 7.46764 13.8957 7.48299 13.9541 7.47791L15.4739 7.39388L16.1567 8.74582C16.1825 8.79736 16.2243 8.83916 16.2759 8.86498L17.6277 9.54768L17.5438 11.0676C17.5417 11.1257 17.5568 11.1831 17.5871 11.2328L18.4243 12.5007L17.5871 13.7686Z" fill="white"/>
</g>
<defs>
<clipPath id="clip0">
<rect x="6" y="6" width="13" height="13" fill="white"/>
</clipPath>
</defs>
</svg>
