<svg width="25" height="25" viewBox="0 0 25 25" fill="none" xmlns="http://www.w3.org/2000/svg">
<circle cx="12.5" cy="12.5" r="12.5" fill="#1C1C1C"/>
<path d="M17.1909 6.89265C16.5357 6.23858 15.4746 6.23858 14.8194 6.89265L14.2258 7.48954L7.90655 13.8054L7.89312 13.8189C7.88987 13.8222 7.88987 13.8257 7.88641 13.8257C7.87969 13.8357 7.86962 13.8457 7.86301 13.8558C7.86301 13.8591 7.85955 13.8591 7.85955 13.8625C7.85283 13.8726 7.84958 13.8793 7.84276 13.8893C7.83951 13.8927 7.83951 13.896 7.83615 13.8994C7.83279 13.9095 7.82943 13.9162 7.82597 13.9263C7.82597 13.9295 7.82272 13.9295 7.82272 13.933L6.42067 18.1491C6.37955 18.2691 6.41081 18.4021 6.50115 18.4911C6.56462 18.5538 6.65024 18.5888 6.73932 18.5885C6.77572 18.5879 6.81182 18.5822 6.84665 18.5717L11.0595 17.1663C11.0628 17.1663 11.0628 17.1663 11.0662 17.1631C11.0768 17.1599 11.087 17.1554 11.0963 17.1495C11.099 17.1492 11.1013 17.1481 11.1031 17.1463C11.1131 17.1396 11.1265 17.1327 11.1366 17.126C11.1466 17.1194 11.1568 17.1093 11.1668 17.1026C11.1702 17.0992 11.1734 17.0992 11.1734 17.0959C11.1769 17.0926 11.1836 17.0893 11.187 17.0825L18.0998 10.1696C18.7539 9.51439 18.7539 8.45334 18.0998 7.79822L17.1909 6.89265ZM10.9522 16.378L8.6177 14.0437L14.4606 8.20079L16.7951 10.5352L10.9522 16.378ZM8.28888 14.6642L10.3283 16.7035L7.26591 17.7231L8.28888 14.6642ZM17.627 9.7L17.2714 10.0589L14.9368 7.72435L15.2959 7.36553C15.6886 6.97313 16.3251 6.97313 16.7179 7.36553L17.6302 8.27781C18.02 8.67231 18.0185 9.30739 17.627 9.7Z" fill="white"/>
</svg>
