<svg width="25" height="25" viewBox="0 0 25 25" fill="none" xmlns="http://www.w3.org/2000/svg">
<circle cx="12.5" cy="12.5" r="12.5" fill="#1C1C1C"/>
<path d="M15.645 6H9.35488C8.77653 6 8.30566 6.47087 8.30566 7.04921V17.9508C8.30566 18.5291 8.77653 19 9.35488 19H15.645C16.2234 19 16.6942 18.5291 16.6942 17.9508V7.04921C16.6942 6.47087 16.2234 6 15.645 6ZM16.2746 17.9508C16.2746 18.2988 15.9931 18.5803 15.645 18.5803H9.35488C9.00685 18.5803 8.72535 18.2988 8.72535 17.9508V16.4819H16.2746V17.9508ZM16.2746 16.0648H8.72535V8.09587H16.2746V16.0648ZM16.2746 7.67874H8.72535V7.04921C8.72535 6.70118 9.00685 6.41969 9.35488 6.41969H15.645C15.9931 6.41969 16.2746 6.70118 16.2746 7.04921V7.67874Z" fill="white"/>
<path d="M13.5465 6.83936H11.4507V7.25904H13.5465V6.83936Z" fill="white"/>
<path d="M12.5 16.6943C12.0368 16.6943 11.6606 17.0705 11.6606 17.5337C11.6606 17.9969 12.0368 18.3731 12.5 18.3731C12.9632 18.3731 13.3394 17.9969 13.3394 17.5337C13.3394 17.0705 12.9632 16.6943 12.5 16.6943ZM12.5 17.9508C12.2697 17.9508 12.0803 17.7615 12.0803 17.5311C12.0803 17.3008 12.2697 17.1115 12.5 17.1115C12.7303 17.1115 12.9197 17.3008 12.9197 17.5311C12.9197 17.764 12.7303 17.9508 12.5 17.9508Z" fill="white"/>
</svg>
