<svg width="25" height="25" viewBox="0 0 25 25" fill="none" xmlns="http://www.w3.org/2000/svg">
<circle cx="12.5" cy="12.5" r="12.5" fill="#1C1C1C"/>
<path d="M12.5 6C8.91015 6 6 8.91015 6 12.5C6 16.0899 8.91015 19 12.5 19C16.0899 19 19 16.0899 19 12.5C19 8.91015 16.0899 6 12.5 6ZM12.5 18.5667C9.14948 18.5667 6.43334 15.8505 6.43334 12.5C6.43334 9.14948 9.14948 6.43334 12.5 6.43334C15.8505 6.43334 18.5667 9.14948 18.5667 12.5C18.5667 15.8505 15.8505 18.5667 12.5 18.5667Z" fill="white"/>
<path d="M16.0102 10.5289L14.4936 9.39135C14.3395 9.2758 14.1276 9.2758 13.9736 9.39135L12.5002 10.4964L11.0269 9.39135C10.8728 9.2758 10.661 9.2758 10.5069 9.39135L8.99024 10.5289C8.88113 10.6107 8.81689 10.7391 8.81689 10.8755V14.6672C8.81689 14.9065 9.0109 15.1005 9.25024 15.1005C9.344 15.1005 9.43523 15.0701 9.51024 15.0139L10.7669 14.0714L12.2402 15.1764C12.3943 15.2919 12.6062 15.2919 12.7602 15.1764L14.2336 14.0714L15.4902 15.0139C15.6817 15.1574 15.9533 15.1186 16.0969 14.9272C16.1532 14.8522 16.1836 14.761 16.1836 14.6672V10.8755C16.1836 10.7391 16.1194 10.6107 16.0102 10.5289ZM10.5502 13.703C10.5354 13.7094 10.5209 13.7166 10.5069 13.7247L9.25024 14.6672V10.8755L10.5502 9.90051V13.703ZM12.2836 14.6672L11.0269 13.7247C11.0129 13.7166 10.9985 13.7093 10.9836 13.703V9.90051L12.2402 10.843C12.2543 10.8511 12.2687 10.8583 12.2836 10.8647V14.6672ZM14.0169 13.703C14.002 13.7094 13.9876 13.7166 13.9736 13.7247L12.7169 14.6672V10.8647C12.7317 10.8583 12.7462 10.8511 12.7602 10.843L14.0169 9.90051V13.703ZM15.7502 14.6672L14.4936 13.7247C14.4796 13.7166 14.4651 13.7094 14.4502 13.703V9.90051L15.7502 10.8755V14.6672Z" fill="white"/>
</svg>
