<svg width="24" height="25" viewBox="0 0 24 25" fill="none" xmlns="http://www.w3.org/2000/svg">
<path fill-rule="evenodd" clip-rule="evenodd" d="M2.4128 7.94989L3.67394 7.22658C3.90917 6.21102 4.54541 5.34365 5.42823 4.83498L7.57405 3.60224C7.7052 2.82343 8.03678 2.09541 8.53402 1.49452C8.56644 1.45928 8.60468 1.43031 8.64696 1.40896C10.4653 0.475658 16.2364 0.475658 18.0584 1.40896C18.1007 1.43031 18.139 1.45928 18.1714 1.49452C18.6662 2.09103 18.9976 2.81336 19.1313 3.58668L21.2809 4.83498C22.4284 5.49687 23.1397 6.74786 23.1406 8.10544V19.2079C23.1386 20.1628 22.3897 20.9363 21.4654 20.9384H20.129V22.3189C20.1269 23.2738 19.3781 24.0473 18.4537 24.0494H2.22833C1.30398 24.0473 0.555162 23.2738 0.553093 22.3189V11.2165C0.552151 9.85938 1.26421 8.60865 2.4128 7.94989ZM5.79846 5.51562C4.88549 6.0367 4.31773 7.02808 4.31522 8.10555V19.208C4.31522 19.7342 4.72816 20.1608 5.23754 20.1608H12.9738V6.18838C12.4517 6.68276 12.035 7.28402 11.7503 7.95388C11.71 8.05805 11.6281 8.13917 11.5257 8.17643C11.4233 8.21368 11.3103 8.20344 11.2157 8.14832C9.82585 7.33719 8.58166 6.28479 7.5377 5.0373C7.44553 4.91488 7.45123 4.79543 7.45915 4.62954C7.46028 4.60573 7.46147 4.58096 7.46241 4.55509L5.79846 5.51562ZM15.5909 3.63734C14.9033 4.1991 14.1509 4.67065 13.351 5.04119C12.551 4.67065 11.7986 4.1991 11.111 3.63734C12.5998 3.46815 14.1021 3.46815 15.5909 3.63734ZM8.83292 2.41235L8.8251 2.42596C9.86158 3.70738 11.1367 4.76071 12.5749 5.52337C12.0237 6.0044 11.5706 6.59399 11.2423 7.25777C10.1209 6.54538 9.10631 5.66762 8.23059 4.65228C8.23378 3.8687 8.43903 3.10025 8.8251 2.42596L8.8141 2.41235H8.83292ZM10.3387 2.95704C10.0172 2.64003 9.7154 2.30232 9.43517 1.94596H9.41635C11.2648 1.35486 15.4359 1.35486 17.2881 1.94596C17.0006 2.30304 16.6913 2.64076 16.362 2.95704C14.3648 2.65684 12.3359 2.65684 10.3387 2.95704ZM17.8913 2.41235C16.8556 3.70437 15.5743 4.7632 14.1267 5.52337C14.678 6.0044 15.131 6.59399 15.4594 7.25777C16.5808 6.54552 17.5954 5.66774 18.4711 4.65228C18.4731 3.8658 18.273 3.09286 17.8913 2.41235ZM22.3849 8.10555V19.208C22.3849 19.7342 21.9719 20.1608 21.4625 20.1608H13.7263V6.18838C14.2507 6.67977 14.6667 7.28188 14.946 7.95388C14.9862 8.05916 15.0687 8.14117 15.1721 8.17852C15.2755 8.21586 15.3895 8.20484 15.4844 8.14832C16.8742 7.33719 18.1184 6.28479 19.1624 5.0373C19.2474 4.92442 19.2442 4.81913 19.2399 4.67047V4.67046V4.67045C19.2388 4.63474 19.2377 4.59652 19.2377 4.55509L20.9091 5.51562C21.8192 6.03873 22.3839 7.02972 22.3849 8.10555ZM19.374 22.3193V20.9388H10.7154V23.2721H18.4517C18.9611 23.2721 19.374 22.8455 19.374 22.3193ZM2.22667 23.2715C1.71728 23.2715 1.30434 22.8449 1.30434 22.3188V11.2163C1.30534 10.1405 1.87 9.14947 2.78006 8.62636L3.5631 8.17526V19.2077C3.56517 20.1626 4.31399 20.9361 5.23834 20.9382H9.9629V23.2715H2.22667Z" fill="#4A4A4A"/>
<path d="M3.67394 7.22658L3.85731 7.26905L3.83879 7.34902L3.76758 7.38986L3.67394 7.22658ZM2.4128 7.94989L2.50645 8.11317V8.11317L2.4128 7.94989ZM5.42823 4.83498L5.33426 4.67189L5.33447 4.67177L5.42823 4.83498ZM7.57405 3.60224L7.75967 3.6335L7.7449 3.72116L7.66781 3.76545L7.57405 3.60224ZM8.53402 1.49452L8.3888 1.37435L8.3955 1.36707L8.53402 1.49452ZM8.64696 1.40896L8.73291 1.57643L8.7318 1.57699L8.64696 1.40896ZM18.0584 1.40896L17.9736 1.57699L17.9726 1.5765L18.0584 1.40896ZM18.1714 1.49452L18.3101 1.36691L18.3162 1.37434L18.1714 1.49452ZM19.1313 3.58668L19.0368 3.74945L18.9608 3.70533L18.9459 3.61875L19.1313 3.58668ZM21.2809 4.83498L21.1869 4.99803L21.1864 4.99775L21.2809 4.83498ZM23.1406 8.10544L23.3289 8.10532V8.10544H23.1406ZM23.1406 19.2079H23.3289L23.3289 19.2083L23.1406 19.2079ZM21.4654 20.9384L21.4658 21.1266H21.4654V20.9384ZM20.129 20.9384H19.9407V20.7502H20.129V20.9384ZM20.129 22.3189H20.3172L20.3172 22.3193L20.129 22.3189ZM18.4537 24.0494L18.4541 24.2377H18.4537V24.0494ZM2.22833 24.0494V24.2377L2.2279 24.2377L2.22833 24.0494ZM0.553093 22.3189L0.364864 22.3193V22.3189H0.553093ZM0.553093 11.2165L0.741322 11.2163V11.2165H0.553093ZM4.31522 8.10555H4.12699L4.12699 8.10511L4.31522 8.10555ZM5.79846 5.51562L5.89257 5.67864L5.89177 5.67909L5.79846 5.51562ZM12.9738 20.1608H13.162V20.349H12.9738V20.1608ZM12.9738 6.18838L12.8443 6.05171L13.162 5.75089V6.18838H12.9738ZM11.7503 7.95388L11.5746 7.88596L11.5771 7.88024L11.7503 7.95388ZM11.5257 8.17643L11.5901 8.35332L11.5257 8.17643ZM11.2157 8.14832L11.1209 8.31095L11.1208 8.31089L11.2157 8.14832ZM7.5377 5.0373L7.39316 5.15826L7.38733 5.15052L7.5377 5.0373ZM7.45915 4.62954L7.27113 4.62056V4.62056L7.45915 4.62954ZM7.46241 4.55509L7.36831 4.39207L7.66294 4.222L7.65052 4.56196L7.46241 4.55509ZM13.351 5.04119L13.4301 5.21199L13.351 5.24864L13.2718 5.21199L13.351 5.04119ZM15.5909 3.63734L15.6121 3.45032L16.0556 3.50072L15.71 3.78311L15.5909 3.63734ZM11.111 3.63734L10.9919 3.78311L10.6463 3.50072L11.0898 3.45032L11.111 3.63734ZM8.83292 2.41235V2.22412H9.15825L8.99611 2.50616L8.83292 2.41235ZM12.5749 5.52337L12.6631 5.35708L12.9049 5.48528L12.6987 5.6652L12.5749 5.52337ZM11.2423 7.25777L11.411 7.34123L11.3181 7.52895L11.1413 7.41665L11.2423 7.25777ZM8.23059 4.65228L8.08805 4.77522L8.04207 4.72191L8.04236 4.65152L8.23059 4.65228ZM8.8141 2.41235L8.66768 2.53063L8.42007 2.22412H8.8141V2.41235ZM9.43517 1.94596V1.75773H9.52661L9.58314 1.82961L9.43517 1.94596ZM10.3387 2.95704L10.3667 3.14318L10.2736 3.15717L10.2065 3.09107L10.3387 2.95704ZM9.41635 1.94596V2.13419L9.35902 1.76667L9.41635 1.94596ZM17.2881 1.94596L17.3453 1.76664L17.6069 1.85012L17.4347 2.064L17.2881 1.94596ZM16.362 2.95704L16.4924 3.09279L16.4256 3.15694L16.334 3.14318L16.362 2.95704ZM14.1267 5.52337L14.003 5.6652L13.7959 5.4845L14.0392 5.35672L14.1267 5.52337ZM17.8913 2.41235L17.7444 2.29462L17.919 2.07689L18.0555 2.32027L17.8913 2.41235ZM15.4594 7.25777L15.5603 7.41666L15.3835 7.52893L15.2907 7.34123L15.4594 7.25777ZM18.4711 4.65228L18.6593 4.65276L18.6591 4.72244L18.6136 4.7752L18.4711 4.65228ZM22.3849 8.10555L22.5731 8.10537V8.10555H22.3849ZM13.7263 20.1608V20.349H13.5381V20.1608H13.7263ZM13.7263 6.18838H13.5381V5.75402L13.855 6.05103L13.7263 6.18838ZM14.946 7.95388L15.1199 7.88159L15.1219 7.88685L14.946 7.95388ZM15.1721 8.17852L15.236 8.00148H15.236L15.1721 8.17852ZM15.4844 8.14832L15.388 7.9866L15.3895 7.98575L15.4844 8.14832ZM19.1624 5.0373L19.3129 5.15067L19.3067 5.1581L19.1624 5.0373ZM19.2399 4.67047L19.0516 4.67604V4.67047H19.2399ZM19.2399 4.67045L19.4281 4.66488V4.67045H19.2399ZM19.2377 4.55509H19.0494V4.22983L19.3315 4.39189L19.2377 4.55509ZM20.9091 5.51562L21.0029 5.35242L21.0029 5.35243L20.9091 5.51562ZM19.374 20.9388V20.7506H19.5622V20.9388H19.374ZM10.7154 20.9388H10.5272V20.7506H10.7154V20.9388ZM10.7154 23.2721V23.4603H10.5272V23.2721H10.7154ZM1.30434 11.2163H1.11611L1.11612 11.2161L1.30434 11.2163ZM2.78006 8.62636L2.87402 8.78946L2.87387 8.78955L2.78006 8.62636ZM3.5631 8.17526L3.46914 8.01216L3.75133 7.8496V8.17526H3.5631ZM3.5631 19.2077L3.37487 19.2081V19.2077H3.5631ZM5.23834 20.9382V21.1265L5.2379 21.1265L5.23834 20.9382ZM9.9629 20.9382V20.75H10.1511V20.9382H9.9629ZM9.9629 23.2715H10.1511V23.4597H9.9629V23.2715ZM3.76758 7.38986L2.50645 8.11317L2.31915 7.78661L3.58029 7.0633L3.76758 7.38986ZM5.52221 4.99807C4.68579 5.48001 4.08107 6.30303 3.85731 7.26905L3.49056 7.1841C3.73727 6.11901 4.40502 5.2073 5.33426 4.67189L5.52221 4.99807ZM7.66781 3.76545L5.522 4.99819L5.33447 4.67177L7.48029 3.43902L7.66781 3.76545ZM8.67904 1.61452C8.20318 2.18958 7.8854 2.88689 7.75967 3.6335L7.38843 3.57098C7.52501 2.75996 7.87039 2.00124 8.389 1.37452L8.67904 1.61452ZM8.7318 1.57699C8.70993 1.58803 8.68982 1.60318 8.67254 1.62196L8.3955 1.36707C8.44305 1.31538 8.49943 1.27259 8.56212 1.24094L8.7318 1.57699ZM17.9726 1.5765C17.5457 1.35781 16.8686 1.18622 16.0486 1.07036C15.2332 0.955153 14.2932 0.897214 13.3513 0.897214C12.4094 0.897214 11.4696 0.955153 10.6547 1.07036C9.83513 1.18622 9.15884 1.3578 8.73291 1.57642L8.561 1.24151C9.04422 0.993476 9.77119 0.815061 10.602 0.697603C11.4376 0.579479 12.3953 0.520755 13.3513 0.520755C14.3072 0.520755 15.2652 0.579479 16.1012 0.697601C16.9326 0.815061 17.6601 0.993468 18.1442 1.24143L17.9726 1.5765ZM18.0328 1.62196C18.0156 1.60318 17.9955 1.58803 17.9736 1.57699L18.1433 1.24094C18.206 1.27259 18.2623 1.31538 18.3099 1.36708L18.0328 1.62196ZM18.9459 3.61875C18.8177 2.87742 18.5 2.18556 18.0265 1.61469L18.3162 1.37434C18.8323 1.99651 19.1776 2.74931 19.3168 3.55461L18.9459 3.61875ZM21.1864 4.99775L19.0368 3.74945L19.2259 3.42391L21.3754 4.67221L21.1864 4.99775ZM22.9524 8.10557C22.9515 6.81315 22.2743 5.62531 21.1869 4.99803L21.375 4.67193C22.5824 5.36843 23.3279 6.68257 23.3289 8.10532L22.9524 8.10557ZM22.9524 19.2079V8.10544H23.3289V19.2079H22.9524ZM21.4649 20.7502C22.28 20.7483 22.9505 20.0645 22.9524 19.2075L23.3289 19.2083C23.3266 20.261 22.4995 21.1243 21.4658 21.1266L21.4649 20.7502ZM20.129 20.7502H21.4654V21.1266H20.129V20.7502ZM19.9407 22.3189V20.9384H20.3172V22.3189H19.9407ZM18.4533 23.8612C19.2683 23.8593 19.9389 23.1755 19.9407 22.3185L20.3172 22.3193C20.3149 23.372 19.4878 24.2353 18.4541 24.2377L18.4533 23.8612ZM2.22833 23.8612H18.4537V24.2377H2.22833V23.8612ZM0.741322 22.3185C0.743179 23.1755 1.41372 23.8593 2.22877 23.8612L2.2279 24.2377C1.19425 24.2353 0.367146 23.372 0.364864 22.3193L0.741322 22.3185ZM0.741322 11.2165V22.3189H0.364864V11.2165H0.741322ZM2.50645 8.11317C1.41818 8.73733 0.740425 9.92465 0.741322 11.2163L0.364864 11.2166C0.363876 9.7941 1.11024 8.47997 2.31915 7.78661L2.50645 8.11317ZM4.12699 8.10511C4.12965 6.9623 4.73184 5.90766 5.70516 5.35214L5.89177 5.67909C5.03914 6.16573 4.50581 7.09386 4.50344 8.10598L4.12699 8.10511ZM4.12699 19.208V8.10555H4.50344V19.208H4.12699ZM5.23754 20.349C4.61849 20.349 4.12699 19.8324 4.12699 19.208H4.50344C4.50344 19.6361 4.83782 19.9725 5.23754 19.9725V20.349ZM12.9738 20.349H5.23754V19.9725H12.9738V20.349ZM13.162 6.18838V20.1608H12.7855V6.18838H13.162ZM11.5771 7.88024C11.8718 7.18689 12.3033 6.56409 12.8443 6.05171L13.1032 6.32505C12.6002 6.80143 12.1983 7.38116 11.9235 8.02752L11.5771 7.88024ZM11.4614 7.99954C11.5113 7.98138 11.5535 7.94091 11.5747 7.88599L11.9258 8.02177C11.8665 8.17519 11.745 8.29697 11.5901 8.35332L11.4614 7.99954ZM11.3105 7.98569C11.357 8.01281 11.4117 8.01759 11.4614 7.99954L11.5901 8.35332C11.4348 8.40977 11.2636 8.39406 11.1209 8.31095L11.3105 7.98569ZM7.68206 4.9165C8.71221 6.1475 9.93972 7.1857 11.3106 7.98575L11.1208 8.31089C9.71199 7.48868 8.45111 6.42209 7.39335 5.1581L7.68206 4.9165ZM7.64716 4.63851C7.63883 4.81299 7.64235 4.86334 7.68808 4.92408L7.38733 5.15052C7.24871 4.96641 7.26362 4.77786 7.27113 4.62056L7.64716 4.63851ZM7.65052 4.56196C7.64953 4.58904 7.64829 4.61484 7.64716 4.63852L7.27113 4.62056C7.27227 4.59662 7.27341 4.57288 7.27431 4.54822L7.65052 4.56196ZM5.70436 5.3526L7.36831 4.39207L7.55652 4.71811L5.89257 5.67864L5.70436 5.3526ZM13.2718 4.8704C14.0573 4.50653 14.7963 4.04342 15.4718 3.49158L15.71 3.78311C15.0102 4.35478 14.2444 4.83476 13.4301 5.21199L13.2718 4.8704ZM11.2301 3.49158C11.9056 4.04342 12.6446 4.50653 13.4301 4.8704L13.2718 5.21199C12.4575 4.83476 11.6917 4.35478 10.9919 3.78311L11.2301 3.49158ZM15.5696 3.82437C14.095 3.65678 12.607 3.65678 11.1323 3.82437L11.0898 3.45032C12.5927 3.27952 14.1092 3.27952 15.6121 3.45032L15.5696 3.82437ZM8.66191 2.33215L8.66973 2.31853L8.99611 2.50616L8.98828 2.51977L8.66191 2.33215ZM12.4867 5.68966C11.0258 4.91496 9.73098 3.84523 8.67875 2.54433L8.97144 2.30759C9.99217 3.56953 11.2476 4.60645 12.6631 5.35708L12.4867 5.68966ZM11.0735 7.1743C11.4128 6.48858 11.881 5.87908 12.4512 5.38155L12.6987 5.6652C12.1663 6.12972 11.7285 6.69941 11.411 7.34123L11.0735 7.1743ZM8.37312 4.52935C9.23693 5.53086 10.2375 6.39647 11.3432 7.09889L11.1413 7.41665C10.0043 6.69429 8.9757 5.80438 8.08805 4.77522L8.37312 4.52935ZM8.98845 2.51949C8.6187 3.16529 8.42188 3.90174 8.41881 4.65305L8.04236 4.65152C8.04568 3.83566 8.25937 3.03522 8.66174 2.33244L8.98845 2.51949ZM8.96052 2.29406L8.97152 2.30768L8.67867 2.54424L8.66768 2.53063L8.96052 2.29406ZM8.83292 2.60058H8.8141V2.22412H8.83292V2.60058ZM9.58314 1.82961C9.8585 2.17978 10.155 2.51157 10.4708 2.82301L10.2065 3.09107C9.87936 2.76848 9.57231 2.42487 9.28721 2.06231L9.58314 1.82961ZM9.41635 1.75773H9.43517V2.13419H9.41635V1.75773ZM17.2309 2.12528C16.3328 1.83868 14.8503 1.69087 13.3508 1.69087C11.8513 1.69087 10.3698 1.83868 9.47368 2.12524L9.35902 1.76667C10.3113 1.46214 11.8396 1.31441 13.3508 1.31441C14.8621 1.31441 16.3912 1.46214 17.3453 1.76664L17.2309 2.12528ZM16.2316 2.82129C16.5551 2.51059 16.859 2.17878 17.1415 1.82791L17.4347 2.064C17.1422 2.4273 16.8275 2.77093 16.4924 3.09279L16.2316 2.82129ZM10.3107 2.7709C12.3265 2.46792 14.3742 2.46792 16.39 2.7709L16.334 3.14318C14.3553 2.84577 12.3454 2.84577 10.3667 3.14318L10.3107 2.7709ZM14.0392 5.35672C15.4636 4.60876 16.7247 3.56669 17.7444 2.29462L18.0382 2.53008C16.9865 3.84206 15.6851 4.91765 14.2142 5.69002L14.0392 5.35672ZM15.2907 7.34123C14.9732 6.6994 14.5353 6.12972 14.003 5.6652L14.2505 5.38155C14.8207 5.87908 15.2889 6.48858 15.6281 7.1743L15.2907 7.34123ZM18.6136 4.7752C17.7261 5.80449 16.6975 6.69443 15.5603 7.41666L15.3585 7.09888C16.4642 6.3966 17.4648 5.53099 18.3285 4.52936L18.6136 4.7752ZM18.0555 2.32027C18.4532 3.02928 18.6614 3.83415 18.6593 4.65276L18.2828 4.65181C18.2847 3.89746 18.0928 3.15644 17.7271 2.50443L18.0555 2.32027ZM22.1966 19.208V8.10555H22.5731V19.208H22.1966ZM21.4625 19.9725C21.8623 19.9725 22.1966 19.6361 22.1966 19.208H22.5731C22.5731 19.8324 22.0816 20.349 21.4625 20.349V19.9725ZM13.7263 19.9725H21.4625V20.349H13.7263V19.9725ZM13.9145 6.18838V20.1608H13.5381V6.18838H13.9145ZM14.7722 8.02614C14.503 7.37846 14.1022 6.79863 13.5976 6.32572L13.855 6.05103C14.3991 6.56092 14.8303 7.18529 15.1198 7.88162L14.7722 8.02614ZM15.1081 8.35555C14.9517 8.29906 14.8292 8.17595 14.7701 8.02092L15.1219 7.88685C15.1431 7.94238 15.1856 7.98328 15.236 8.00148L15.1081 8.35555ZM15.5807 8.31004C15.4376 8.39525 15.2648 8.41215 15.1081 8.35555L15.236 8.00148C15.2861 8.01957 15.3413 8.01443 15.3881 7.9866L15.5807 8.31004ZM19.3067 5.1581C18.249 6.42209 16.9881 7.48868 15.5792 8.31089L15.3895 7.98575C16.7604 7.1857 17.9879 6.1475 19.018 4.9165L19.3067 5.1581ZM19.428 4.66491C19.4322 4.80744 19.4424 4.97834 19.3127 5.15052L19.012 4.92408C19.0523 4.87051 19.0563 4.83083 19.0517 4.67603L19.428 4.66491ZM19.4281 4.67046V4.67047H19.0516V4.67046H19.4281ZM19.4281 4.67045V4.67046H19.0516V4.67045H19.4281ZM19.4259 4.55509C19.4259 4.59335 19.4269 4.62892 19.428 4.66489L19.0517 4.67601C19.0507 4.64055 19.0494 4.59969 19.0494 4.55509H19.4259ZM20.8154 5.67882L19.1439 4.71829L19.3315 4.39189L21.0029 5.35242L20.8154 5.67882ZM22.1966 8.10572C22.1957 7.09513 21.6653 6.16735 20.8153 5.67881L21.0029 5.35243C21.9731 5.9101 22.572 6.9643 22.5731 8.10537L22.1966 8.10572ZM19.5622 20.9388V22.3193H19.1858V20.9388H19.5622ZM10.7154 20.7506H19.374V21.127H10.7154V20.7506ZM10.5272 23.2721V20.9388H10.9037V23.2721H10.5272ZM18.4517 23.4603H10.7154V23.0838H18.4517V23.4603ZM19.5622 22.3193C19.5622 22.9436 19.0707 23.4603 18.4517 23.4603V23.0838C18.8514 23.0838 19.1858 22.7473 19.1858 22.3193H19.5622ZM1.49257 22.3188C1.49257 22.7468 1.82695 23.0833 2.22667 23.0833V23.4597C1.60761 23.4597 1.11612 22.9431 1.11612 22.3188H1.49257ZM1.49257 11.2163V22.3188H1.11612V11.2163H1.49257ZM2.87387 8.78955C2.02394 9.2781 1.49351 10.2059 1.49257 11.2165L1.11612 11.2161C1.11717 10.075 1.71606 9.02085 2.68626 8.46317L2.87387 8.78955ZM3.65706 8.33836L2.87402 8.78946L2.6861 8.46326L3.46914 8.01216L3.65706 8.33836ZM3.37487 19.2077V8.17526H3.75133V19.2077H3.37487ZM5.2379 21.1265C4.20425 21.1241 3.37715 20.2608 3.37487 19.2081L3.75133 19.2073C3.75318 20.0643 4.42372 20.7481 5.23877 20.75L5.2379 21.1265ZM9.9629 21.1265H5.23834V20.75H9.9629V21.1265ZM9.77467 23.2715V20.9382H10.1511V23.2715H9.77467ZM2.22667 23.0833H9.9629V23.4597H2.22667V23.0833Z" fill="#4A4A4A"/>
<path fill-rule="evenodd" clip-rule="evenodd" d="M14.8565 10.8735C14.8565 11.4973 15.3621 12.0029 15.9859 12.0029C16.6096 12.0029 17.1152 11.4973 17.1152 10.8735C17.1152 10.2498 16.6096 9.74414 15.9859 9.74414C15.3621 9.74414 14.8565 10.2498 14.8565 10.8735ZM15.6102 10.8731C15.6102 10.6652 15.7787 10.4966 15.9867 10.4966C16.1946 10.4966 16.3631 10.6652 16.3631 10.8731C16.3631 11.081 16.1946 11.2496 15.9867 11.2496C15.7787 11.2496 15.6102 11.081 15.6102 10.8731Z" fill="#4A4A4A"/>
<path fill-rule="evenodd" clip-rule="evenodd" d="M14.8565 13.8852C14.8565 14.509 15.3621 15.0146 15.9859 15.0146C16.6096 15.0146 17.1152 14.509 17.1152 13.8852C17.1152 13.2615 16.6096 12.7559 15.9859 12.7559C15.3621 12.7559 14.8565 13.2615 14.8565 13.8852ZM15.6102 13.8857C15.6102 13.6778 15.7787 13.5092 15.9867 13.5092C16.1946 13.5092 16.3631 13.6778 16.3631 13.8857C16.3631 14.0936 16.1946 14.2621 15.9867 14.2621C15.7787 14.2621 15.6102 14.0936 15.6102 13.8857Z" fill="#4A4A4A"/>
<path fill-rule="evenodd" clip-rule="evenodd" d="M14.8565 16.897C14.8565 17.5207 15.3621 18.0263 15.9859 18.0263C16.6096 18.0263 17.1152 17.5207 17.1152 16.897C17.1152 16.2732 16.6096 15.7676 15.9859 15.7676C15.3621 15.7676 14.8565 16.2732 14.8565 16.897ZM15.6102 16.8965C15.6102 16.6886 15.7787 16.5201 15.9867 16.5201C16.1946 16.5201 16.3631 16.6886 16.3631 16.8965C16.3631 17.1044 16.1946 17.273 15.9867 17.273C15.7787 17.273 15.6102 17.1044 15.6102 16.8965Z" fill="#4A4A4A"/>
</svg>
