<svg width="30" height="25" viewBox="0 0 30 25" fill="none" xmlns="http://www.w3.org/2000/svg">
<path d="M15.0889 12.373C14.6733 12.373 14.336 12.0357 14.336 11.6201C14.336 11.2045 14.6733 10.8672 15.0889 10.8672C15.5045 10.8672 15.8418 11.2045 15.8418 11.6201C15.8418 12.0357 15.5045 12.373 15.0889 12.373Z" fill="#4A4A4A"/>
<path fill-rule="evenodd" clip-rule="evenodd" d="M6.32347 7.99179H3.01888C1.78645 7.99179 0.783651 8.97446 0.783651 10.1822C0.783651 11.133 1.41209 11.9608 2.30138 12.2562C2.39611 12.3289 2.5153 12.3725 2.64496 12.3725C2.6705 12.3725 2.69473 12.374 2.71917 12.3774C2.96059 12.4091 3.15137 12.5879 3.19503 12.8221L5.09606 23.0707C5.24122 23.8523 5.93493 24.4195 6.74563 24.4195H23.4325C24.2433 24.4195 24.937 23.8523 25.0821 23.0709L26.9832 12.8219C27.0268 12.5879 27.2174 12.4091 27.4579 12.3774C27.4832 12.374 27.5075 12.3725 27.5332 12.3725C27.662 12.3725 27.7803 12.3293 27.8751 12.2574C28.7637 11.964 29.3945 11.1347 29.3945 10.1822C29.3945 8.97446 28.3917 7.99179 27.1593 7.99179H23.8547L18.7711 1.13812C18.3136 0.371918 17.3077 0.0991919 16.5106 0.531918C15.6979 0.97427 15.41 1.97469 15.859 2.76656C15.8719 2.78902 15.8863 2.81063 15.902 2.83116L19.8891 7.99179H10.289L14.2762 2.83116C14.2921 2.81063 14.3063 2.78902 14.3192 2.76656C14.7693 1.97277 14.4781 0.9732 13.6683 0.532346C12.8694 0.0987641 11.8635 0.371704 11.4069 1.13855L6.32347 7.99179ZM13.1248 1.49044C13.3845 1.63161 13.4836 1.94712 13.3559 2.20616L8.88593 7.99202H7.7037L12.3276 1.75803C12.3409 1.74006 12.3534 1.72124 12.3643 1.70156C12.5134 1.43825 12.8543 1.34349 13.1248 1.49044ZM17.8473 1.75845C17.834 1.74049 17.822 1.72188 17.8109 1.70262C17.6613 1.4391 17.3202 1.34412 17.0508 1.49022C16.7906 1.63182 16.6911 1.9469 16.819 2.20637L21.289 7.99223H22.4712L17.8473 1.75845ZM12.8543 11.2771H3.01936C2.40948 11.2771 1.90175 10.79 1.90175 10.1819C1.90175 9.57806 2.40314 9.08672 3.01936 9.08672H27.1598C27.776 9.08672 28.2774 9.57806 28.2774 10.1819C28.2774 10.7808 27.7812 11.2771 27.1598 11.2771H17.3248C17.0161 11.2771 16.766 11.5222 16.766 11.8247C16.766 12.1271 17.0161 12.3723 17.3248 12.3723H25.9527C25.9234 12.4538 25.9003 12.5385 25.8841 12.6257L23.9831 22.8747C23.9346 23.135 23.7035 23.3241 23.433 23.3241H6.74612C6.47588 23.3241 6.2445 23.135 6.19626 22.8745L4.29501 12.6204C4.27886 12.5331 4.25572 12.4484 4.22647 12.3667H12.8543C13.163 12.3667 13.4132 12.1271 13.4132 11.8247C13.4132 11.5222 13.163 11.2771 12.8543 11.2771Z" fill="#4A4A4A"/>
<path fill-rule="evenodd" clip-rule="evenodd" d="M16.5957 16.2447C16.5957 15.3551 15.9202 14.6313 15.0899 14.6313C14.2579 14.6313 13.584 15.3534 13.584 16.2447V20.5471C13.584 21.4368 14.2595 22.1605 15.0899 22.1605C15.9202 22.1605 16.5957 21.4368 16.5957 20.5471V16.2447ZM15.0887 21.0856C14.8119 21.0856 14.5868 20.8444 14.5868 20.5478V16.2454C14.5868 15.9485 14.8117 15.7076 15.0887 15.7076C15.3656 15.7076 15.5907 15.9488 15.5907 16.2454V20.5478C15.5907 20.8444 15.3656 21.0856 15.0887 21.0856Z" fill="#4A4A4A"/>
<path fill-rule="evenodd" clip-rule="evenodd" d="M8.3145 20.5471C8.3145 21.4368 8.98997 22.1605 9.82034 22.1605C10.6507 22.1605 11.3262 21.4368 11.3262 20.5471V16.2447C11.3262 15.3551 10.6507 14.6313 9.82034 14.6313C8.9884 14.6313 8.3145 15.3534 8.3145 16.2447V20.5471ZM9.82055 15.7076C10.0974 15.7076 10.3225 15.9488 10.3225 16.2454V20.5478C10.3225 20.8444 10.0974 21.0856 9.82055 21.0856C9.5437 21.0856 9.31861 20.8444 9.31861 20.5478V16.2454C9.31861 15.9485 9.5435 15.7076 9.82055 15.7076Z" fill="#4A4A4A"/>
<path fill-rule="evenodd" clip-rule="evenodd" d="M21.8672 16.2447C21.8672 15.3551 21.1917 14.6313 20.3614 14.6313C19.5294 14.6313 18.8555 15.3534 18.8555 16.2447V20.5471C18.8555 21.4368 19.531 22.1605 20.3614 22.1605C21.1917 22.1605 21.8672 21.4368 21.8672 20.5471V16.2447ZM20.3603 21.0856C20.0834 21.0856 19.8584 20.8444 19.8584 20.5478V16.2454C19.8584 15.9483 20.0832 15.7076 20.3603 15.7076C20.6372 15.7076 20.8622 15.9488 20.8622 16.2454V20.5478C20.8622 20.8444 20.6372 21.0856 20.3603 21.0856Z" fill="#4A4A4A"/>
</svg>
