<svg width="25" height="23" viewBox="0 0 25 23" fill="none" xmlns="http://www.w3.org/2000/svg">
<path fill-rule="evenodd" clip-rule="evenodd" d="M1.75778 11.0909H1.92366C1.07505 11.5833 0.554678 12.4725 0.55311 13.4333V16.9469C0.554483 18.0245 1.45249 18.8976 2.56089 18.8989H2.96245V20.0701C2.96382 21.1477 3.86183 22.0208 4.97023 22.0221H6.57645C7.68485 22.0208 8.58286 21.1477 8.58423 20.0701V18.8989H16.6154V20.0701C16.6167 21.1477 17.5147 22.0208 18.6231 22.0221H20.2294C21.3378 22.0208 22.2358 21.1477 22.2371 20.0701V18.8989H22.6387C23.7471 18.8976 24.6451 18.0245 24.6465 16.9469V13.4333C24.6449 12.4725 24.1245 11.5833 23.2759 11.0909H23.4418C24.1071 11.0909 24.6465 10.5665 24.6465 9.91967C24.6465 9.27288 24.1071 8.74847 23.4418 8.74847H22.2371C22.2338 5.94684 19.8986 3.67648 17.0169 3.67324V2.89244C17.0155 1.81483 16.1175 0.941764 15.0091 0.94043H10.1905C9.08206 0.941764 8.18405 1.81483 8.18268 2.89244V3.67324C5.301 3.67648 2.96578 5.94684 2.96245 8.74847H1.75778C1.09251 8.74847 0.55311 9.27288 0.55311 9.91967C0.55311 10.5665 1.09251 11.0909 1.75778 11.0909ZM1.35589 9.9198C1.35589 9.70421 1.53569 9.5294 1.75745 9.5294H2.96212V10.3102H1.75745C1.53569 10.3102 1.35589 10.1354 1.35589 9.9198ZM16.214 2.89297C16.214 2.24617 15.6746 1.72176 15.0094 1.72176H10.1907C9.5254 1.72176 8.98601 2.24617 8.98601 2.89297V3.67377H16.214V2.89297ZM17.0159 4.45429C19.4542 4.45715 21.43 6.37808 21.433 8.74871V10.7007H3.7645V8.74871C3.76744 6.37808 5.74327 4.45715 8.18162 4.45429H17.0159ZM23.843 9.9198C23.843 9.70421 23.6632 9.5294 23.4415 9.5294H22.2368V10.3102H23.4415C23.6632 10.3102 23.843 10.1354 23.843 9.9198ZM18.6221 21.2413C17.9568 21.2413 17.4174 20.7169 17.4174 20.0701V18.8989H21.433V20.0701C21.433 20.7169 20.8936 21.2413 20.2283 21.2413H18.6221ZM3.76666 20.0701C3.76666 20.7169 4.30606 21.2413 4.97133 21.2413H6.57756C7.24283 21.2413 7.78222 20.7169 7.78222 20.0701V18.8989H3.76666V20.0701ZM2.56055 18.118C1.89528 18.118 1.35588 17.5936 1.35588 16.9468V13.4332C1.35726 12.3556 2.25527 11.4825 3.36366 11.4812H21.8353C22.9436 11.4825 23.8417 12.3556 23.843 13.4332V16.9468C23.843 17.5936 23.3036 18.118 22.6384 18.118H2.56055Z" fill="#4A4A4A"/>
<path d="M1.92366 11.0909V10.9026H2.62312L2.01812 11.2537L1.92366 11.0909ZM0.55311 13.4333H0.36488L0.364882 13.433L0.55311 13.4333ZM0.55311 16.9469L0.364882 16.9471V16.9469H0.55311ZM2.56089 18.8989V19.0871L2.56066 19.0871L2.56089 18.8989ZM2.96245 18.8989V18.7107H3.15068V18.8989H2.96245ZM2.96245 20.0701L2.77422 20.0704V20.0701H2.96245ZM4.97023 22.0221V22.2104L4.97 22.2104L4.97023 22.0221ZM6.57645 22.0221L6.57668 22.2104H6.57645V22.0221ZM8.58423 20.0701H8.77246V20.0704L8.58423 20.0701ZM8.58423 18.8989H8.39601V18.7107H8.58423V18.8989ZM16.6154 18.8989V18.7107H16.8036V18.8989H16.6154ZM16.6154 20.0701L16.4271 20.0704V20.0701H16.6154ZM18.6231 22.0221V22.2104L18.6229 22.2104L18.6231 22.0221ZM20.2294 22.0221L20.2296 22.2104H20.2294V22.0221ZM22.2371 20.0701H22.4254L22.4254 20.0704L22.2371 20.0701ZM22.2371 18.8989H22.0489V18.7107H22.2371V18.8989ZM22.6387 18.8989L22.6389 19.0871H22.6387V18.8989ZM24.6465 16.9469H24.8347L24.8347 16.9471L24.6465 16.9469ZM24.6465 13.4333L24.8347 13.433V13.4333H24.6465ZM23.2759 11.0909L23.1815 11.2537L22.5765 10.9026H23.2759V11.0909ZM22.2371 8.74847V8.9367H22.0491L22.0489 8.74869L22.2371 8.74847ZM17.0169 3.67324L17.0167 3.86147L16.8287 3.86126V3.67324H17.0169ZM17.0169 2.89244L17.2051 2.8922V2.89244H17.0169ZM15.0091 0.94043V0.7522L15.0094 0.7522L15.0091 0.94043ZM10.1905 0.94043L10.1902 0.7522H10.1905V0.94043ZM8.18268 2.89244H7.99445L7.99445 2.8922L8.18268 2.89244ZM8.18268 3.67324H8.37091V3.86126L8.18289 3.86147L8.18268 3.67324ZM2.96245 8.74847L3.15068 8.74869L3.15045 8.9367H2.96245V8.74847ZM2.96212 9.5294V9.34117H3.15034V9.5294H2.96212ZM2.96212 10.3102H3.15034V10.4984H2.96212V10.3102ZM8.98601 3.67377V3.862H8.79778V3.67377H8.98601ZM16.214 3.67377H16.4023V3.862H16.214V3.67377ZM21.433 8.74871L21.6212 8.74847V8.74871H21.433ZM17.0159 4.45429V4.26606L17.0161 4.26606L17.0159 4.45429ZM21.433 10.7007H21.6212V10.8889H21.433V10.7007ZM3.7645 10.7007V10.8889H3.57627V10.7007H3.7645ZM3.7645 8.74871H3.57627L3.57627 8.74847L3.7645 8.74871ZM8.18162 4.45429L8.1814 4.26606H8.18162V4.45429ZM22.2368 9.5294H22.0486V9.34117H22.2368V9.5294ZM22.2368 10.3102V10.4984H22.0486V10.3102H22.2368ZM17.4174 18.8989H17.2292V18.7107H17.4174V18.8989ZM21.433 18.8989V18.7107H21.6212V18.8989H21.433ZM7.78222 18.8989V18.7107H7.97045V18.8989H7.78222ZM3.76666 18.8989H3.57843V18.7107H3.76666V18.8989ZM1.35588 13.4332H1.16765L1.16765 13.433L1.35588 13.4332ZM3.36366 11.4812L3.36344 11.293H3.36366V11.4812ZM21.8353 11.4812V11.293H21.8355L21.8353 11.4812ZM23.843 13.4332L24.0313 13.433V13.4332H23.843ZM1.92366 11.2791H1.75778V10.9026H1.92366V11.2791ZM0.364882 13.433C0.36656 12.4035 0.924171 11.4532 1.82919 10.9281L2.01812 11.2537C1.22594 11.7133 0.742796 12.5416 0.741339 13.4336L0.364882 13.433ZM0.364882 16.9469V13.4333H0.741339V16.9469H0.364882ZM2.56066 19.0871C1.35351 19.0857 0.366392 18.1335 0.364882 16.9471L0.741339 16.9467C0.742575 17.9156 1.55148 18.7095 2.56112 18.7107L2.56066 19.0871ZM2.96245 19.0871H2.56089V18.7107H2.96245V19.0871ZM2.77422 20.0701V18.8989H3.15068V20.0701H2.77422ZM4.97 22.2104C3.76285 22.2089 2.77573 21.2567 2.77422 20.0704L3.15068 20.0699C3.15191 21.0388 3.96082 21.8327 4.97046 21.8339L4.97 22.2104ZM6.57645 22.2104H4.97023V21.8339H6.57645V22.2104ZM8.77246 20.0704C8.77095 21.2567 7.78384 22.2089 6.57668 22.2104L6.57623 21.8339C7.58587 21.8327 8.39477 21.0388 8.39601 20.0699L8.77246 20.0704ZM8.77246 18.8989V20.0701H8.39601V18.8989H8.77246ZM16.6154 19.0871H8.58423V18.7107H16.6154V19.0871ZM16.4271 20.0701V18.8989H16.8036V20.0701H16.4271ZM18.6229 22.2104C17.4158 22.2089 16.4286 21.2567 16.4271 20.0704L16.8036 20.0699C16.8048 21.0388 17.6137 21.8327 18.6234 21.8339L18.6229 22.2104ZM20.2294 22.2104H18.6231V21.8339H20.2294V22.2104ZM22.4254 20.0704C22.4239 21.2567 21.4367 22.2089 20.2296 22.2104L20.2291 21.8339C21.2388 21.8327 22.0477 21.0388 22.0489 20.0699L22.4254 20.0704ZM22.4254 18.8989V20.0701H22.0489V18.8989H22.4254ZM22.6387 19.0871H22.2371V18.7107H22.6387V19.0871ZM24.8347 16.9471C24.8332 18.1335 23.8461 19.0857 22.6389 19.0871L22.6385 18.7107C23.6481 18.7095 24.457 17.9156 24.4583 16.9467L24.8347 16.9471ZM24.8347 13.4333V16.9469H24.4583V13.4333H24.8347ZM23.3704 10.9281C24.2754 11.4532 24.833 12.4035 24.8347 13.433L24.4583 13.4336C24.4568 12.5416 23.9737 11.7133 23.1815 11.2537L23.3704 10.9281ZM23.4418 11.2791H23.2759V10.9026H23.4418V11.2791ZM24.8347 9.91967C24.8347 10.6754 24.206 11.2791 23.4418 11.2791V10.9026C24.0082 10.9026 24.4583 10.4575 24.4583 9.91967H24.8347ZM23.4418 8.56024C24.206 8.56024 24.8347 9.16396 24.8347 9.91967H24.4583C24.4583 9.3818 24.0082 8.9367 23.4418 8.9367V8.56024ZM22.2371 8.56024H23.4418V8.9367H22.2371V8.56024ZM17.0171 3.48501C19.9976 3.48837 22.4219 5.83788 22.4254 8.74824L22.0489 8.74869C22.0457 6.05579 19.7996 3.8646 17.0167 3.86147L17.0171 3.48501ZM17.2051 2.89244V3.67324H16.8287V2.89244H17.2051ZM15.0094 0.7522C16.2165 0.753654 17.2036 1.70587 17.2051 2.8922L16.8287 2.89268C16.8275 1.92379 16.0185 1.12987 15.0089 1.12866L15.0094 0.7522ZM10.1905 0.7522H15.0091V1.12866H10.1905V0.7522ZM7.99445 2.8922C7.99596 1.70587 8.98308 0.753654 10.1902 0.7522L10.1907 1.12866C9.18105 1.12987 8.37214 1.92379 8.37091 2.89268L7.99445 2.8922ZM7.99445 3.67324V2.89244H8.37091V3.67324H7.99445ZM2.77422 8.74824C2.77768 5.83788 5.20202 3.48837 8.18247 3.48501L8.18289 3.86147C5.39998 3.8646 3.15388 6.05579 3.15068 8.74869L2.77422 8.74824ZM1.75778 8.56024H2.96245V8.9367H1.75778V8.56024ZM0.364882 9.91967C0.364882 9.16396 0.993584 8.56024 1.75778 8.56024V8.9367C1.19143 8.9367 0.741339 9.3818 0.741339 9.91967H0.364882ZM1.75778 11.2791C0.993584 11.2791 0.364882 10.6754 0.364882 9.91967H0.741339C0.741339 10.4575 1.19143 10.9026 1.75778 10.9026V11.2791ZM1.75745 9.71763C1.63461 9.71763 1.54412 9.81313 1.54412 9.9198H1.16766C1.16766 9.59529 1.43677 9.34117 1.75745 9.34117V9.71763ZM2.96212 9.71763H1.75745V9.34117H2.96212V9.71763ZM2.77389 10.3102V9.5294H3.15034V10.3102H2.77389ZM1.75745 10.122H2.96212V10.4984H1.75745V10.122ZM1.54412 9.9198C1.54412 10.0265 1.63461 10.122 1.75745 10.122V10.4984C1.43677 10.4984 1.16766 10.2443 1.16766 9.9198H1.54412ZM15.0094 1.53353C15.7735 1.53353 16.4023 2.13725 16.4023 2.89297H16.0258C16.0258 2.35509 15.5757 1.90999 15.0094 1.90999V1.53353ZM10.1907 1.53353H15.0094V1.90999H10.1907V1.53353ZM8.79778 2.89297C8.79778 2.13725 9.42648 1.53353 10.1907 1.53353V1.90999C9.62433 1.90999 9.17424 2.35509 9.17424 2.89297H8.79778ZM8.79778 3.67377V2.89297H9.17424V3.67377H8.79778ZM16.214 3.862H8.98601V3.48554H16.214V3.862ZM16.4023 2.89297V3.67377H16.0258V2.89297H16.4023ZM21.2447 8.74894C21.2419 6.48704 19.3552 4.64526 17.0156 4.64252L17.0161 4.26606C19.5532 4.26903 21.6181 6.26913 21.6212 8.74847L21.2447 8.74894ZM21.2447 10.7007V8.74871H21.6212V10.7007H21.2447ZM3.7645 10.5125H21.433V10.8889H3.7645V10.5125ZM3.95273 8.74871V10.7007H3.57627V8.74871H3.95273ZM8.18184 4.64252C5.84225 4.64526 3.95554 6.48704 3.95273 8.74894L3.57627 8.74847C3.57935 6.26913 5.64428 4.26903 8.1814 4.26606L8.18184 4.64252ZM17.0159 4.64252H8.18162V4.26606H17.0159V4.64252ZM23.4415 9.34117C23.7622 9.34117 24.0313 9.59529 24.0313 9.9198H23.6548C23.6548 9.81313 23.5643 9.71763 23.4415 9.71763V9.34117ZM22.2368 9.34117H23.4415V9.71763H22.2368V9.34117ZM22.0486 10.3102V9.5294H22.425V10.3102H22.0486ZM23.4415 10.4984H22.2368V10.122H23.4415V10.4984ZM24.0313 9.9198C24.0313 10.2443 23.7622 10.4984 23.4415 10.4984V10.122C23.5643 10.122 23.6548 10.0265 23.6548 9.9198H24.0313ZM17.6056 20.0701C17.6056 20.608 18.0557 21.0531 18.6221 21.0531V21.4296C17.8579 21.4296 17.2292 20.8258 17.2292 20.0701H17.6056ZM17.6056 18.8989V20.0701H17.2292V18.8989H17.6056ZM21.433 19.0871H17.4174V18.7107H21.433V19.0871ZM21.2447 20.0701V18.8989H21.6212V20.0701H21.2447ZM20.2283 21.0531C20.7947 21.0531 21.2447 20.608 21.2447 20.0701H21.6212C21.6212 20.8258 20.9925 21.4296 20.2283 21.4296V21.0531ZM18.6221 21.0531H20.2283V21.4296H18.6221V21.0531ZM4.97133 21.4296C4.20713 21.4296 3.57843 20.8258 3.57843 20.0701H3.95489C3.95489 20.608 4.40498 21.0531 4.97133 21.0531V21.4296ZM6.57756 21.4296H4.97133V21.0531H6.57756V21.4296ZM7.97045 20.0701C7.97045 20.8258 7.34175 21.4296 6.57756 21.4296V21.0531C7.14391 21.0531 7.594 20.608 7.594 20.0701H7.97045ZM7.97045 18.8989V20.0701H7.594V18.8989H7.97045ZM3.76666 18.7107H7.78222V19.0871H3.76666V18.7107ZM3.57843 20.0701V18.8989H3.95489V20.0701H3.57843ZM1.54411 16.9468C1.54411 17.4847 1.9942 17.9298 2.56055 17.9298V18.3063C1.79636 18.3063 1.16765 17.7025 1.16765 16.9468H1.54411ZM1.54411 13.4332V16.9468H1.16765V13.4332H1.54411ZM3.36389 11.6694C2.35425 11.6707 1.54535 12.4646 1.54411 13.4335L1.16765 13.433C1.16916 12.2467 2.15628 11.2944 3.36344 11.293L3.36389 11.6694ZM21.8353 11.6694H3.36366V11.293H21.8353V11.6694ZM23.6548 13.4335C23.6536 12.4646 22.8447 11.6707 21.835 11.6694L21.8355 11.293C23.0426 11.2944 24.0298 12.2466 24.0313 13.433L23.6548 13.4335ZM23.6548 16.9468V13.4332H24.0313V16.9468H23.6548ZM22.6384 17.9298C23.2047 17.9298 23.6548 17.4847 23.6548 16.9468H24.0313C24.0313 17.7025 23.4026 18.3063 22.6384 18.3063V17.9298ZM2.56055 17.9298H22.6384V18.3063H2.56055V17.9298Z" fill="#4A4A4A"/>
<path fill-rule="evenodd" clip-rule="evenodd" d="M17.4657 14.4932H7.73566C7.51177 14.4932 7.33024 14.6617 7.33024 14.8696V16.3755C7.33024 16.5834 7.51177 16.7519 7.73566 16.7519H17.4657C17.6896 16.7519 17.8711 16.5834 17.8711 16.3755V14.8696C17.8711 14.6617 17.6896 14.4932 17.4657 14.4932ZM17.0592 15.999H8.14006V15.2461H17.0592V15.999Z" fill="#4A4A4A"/>
<path d="M8.14006 15.999V16.1872H7.95183V15.999H8.14006ZM17.0592 15.999H17.2475V16.1872H17.0592V15.999ZM8.14006 15.2461H7.95183V15.0578H8.14006V15.2461ZM17.0592 15.2461V15.0578H17.2475V15.2461H17.0592ZM7.73566 14.3049H17.4657V14.6814H7.73566V14.3049ZM7.14201 14.8696C7.14201 14.5449 7.42119 14.3049 7.73566 14.3049V14.6814C7.60235 14.6814 7.51847 14.7786 7.51847 14.8696H7.14201ZM7.14201 16.3755V14.8696H7.51847V16.3755H7.14201ZM7.73566 16.9401C7.42119 16.9401 7.14201 16.7002 7.14201 16.3755H7.51847C7.51847 16.4665 7.60235 16.5637 7.73566 16.5637V16.9401ZM17.4657 16.9401H7.73566V16.5637H17.4657V16.9401ZM18.0593 16.3755C18.0593 16.7002 17.7801 16.9401 17.4657 16.9401V16.5637C17.599 16.5637 17.6829 16.4665 17.6829 16.3755H18.0593ZM18.0593 14.8696V16.3755H17.6829V14.8696H18.0593ZM17.4657 14.3049C17.7801 14.3049 18.0593 14.5449 18.0593 14.8696H17.6829C17.6829 14.7786 17.599 14.6814 17.4657 14.6814V14.3049ZM8.14006 15.8108H17.0592V16.1872H8.14006V15.8108ZM8.32829 15.2461V15.999H7.95183V15.2461H8.32829ZM17.0592 15.4343H8.14006V15.0578H17.0592V15.4343ZM16.871 15.999V15.2461H17.2475V15.999H16.871Z" fill="#4A4A4A"/>
<path fill-rule="evenodd" clip-rule="evenodd" d="M21.6348 15.999C21.6348 15.1674 20.9605 14.4932 20.1289 14.4932C19.2973 14.4932 18.6231 15.1674 18.6231 15.999C18.6231 16.8306 19.2973 17.5048 20.1289 17.5048C20.9605 17.5048 21.6348 16.8306 21.6348 15.999ZM20.8831 15.999C20.8831 16.4148 20.546 16.7519 20.1302 16.7519C19.7144 16.7519 19.3772 16.4148 19.3772 15.999C19.3772 15.5832 19.7144 15.2461 20.1302 15.2461C20.546 15.2461 20.8831 15.5832 20.8831 15.999Z" fill="#4A4A4A"/>
<path d="M20.1289 14.3049C21.0645 14.3049 21.823 15.0635 21.823 15.999H21.4465C21.4465 15.2714 20.8566 14.6814 20.1289 14.6814V14.3049ZM18.4349 15.999C18.4349 15.0635 19.1934 14.3049 20.1289 14.3049V14.6814C19.4013 14.6814 18.8113 15.2714 18.8113 15.999H18.4349ZM20.1289 17.6931C19.1934 17.6931 18.4349 16.9345 18.4349 15.999H18.8113C18.8113 16.7266 19.4013 17.3166 20.1289 17.3166V17.6931ZM21.823 15.999C21.823 16.9345 21.0645 17.6931 20.1289 17.6931V17.3166C20.8566 17.3166 21.4465 16.7266 21.4465 15.999H21.823ZM20.1302 16.5637C20.442 16.5637 20.6948 16.3108 20.6948 15.999H21.0713C21.0713 16.5187 20.6499 16.9401 20.1302 16.9401V16.5637ZM19.5655 15.999C19.5655 16.3108 19.8183 16.5637 20.1302 16.5637V16.9401C19.6104 16.9401 19.189 16.5187 19.189 15.999H19.5655ZM20.1302 15.4343C19.8183 15.4343 19.5655 15.6871 19.5655 15.999H19.189C19.189 15.4792 19.6104 15.0578 20.1302 15.0578V15.4343ZM20.6948 15.999C20.6948 15.6871 20.442 15.4343 20.1302 15.4343V15.0578C20.6499 15.0578 21.0713 15.4792 21.0713 15.999H20.6948Z" fill="#4A4A4A"/>
<path fill-rule="evenodd" clip-rule="evenodd" d="M6.57812 15.999C6.57812 15.1674 5.90388 14.4932 5.07229 14.4932C4.2407 14.4932 3.56645 15.1674 3.56645 15.999C3.56645 16.8306 4.2407 17.5048 5.07229 17.5048C5.90388 17.5048 6.57812 16.8306 6.57812 15.999ZM5.82363 15.999C5.82363 16.4148 5.48651 16.7519 5.07071 16.7519C4.65492 16.7519 4.3178 16.4148 4.3178 15.999C4.3178 15.5832 4.65492 15.2461 5.07071 15.2461C5.48651 15.2461 5.82363 15.5832 5.82363 15.999Z" fill="#4A4A4A"/>
<path d="M5.07229 14.3049C6.00784 14.3049 6.76635 15.0635 6.76635 15.999H6.3899C6.3899 15.2714 5.79992 14.6814 5.07229 14.6814V14.3049ZM3.37822 15.999C3.37822 15.0635 4.13674 14.3049 5.07229 14.3049V14.6814C4.34465 14.6814 3.75468 15.2714 3.75468 15.999H3.37822ZM5.07229 17.6931C4.13674 17.6931 3.37822 16.9345 3.37822 15.999H3.75468C3.75468 16.7266 4.34465 17.3166 5.07229 17.3166V17.6931ZM6.76635 15.999C6.76635 16.9345 6.00784 17.6931 5.07229 17.6931V17.3166C5.79992 17.3166 6.3899 16.7266 6.3899 15.999H6.76635ZM5.07071 16.5637C5.38255 16.5637 5.6354 16.3108 5.6354 15.999H6.01186C6.01186 16.5187 5.59047 16.9401 5.07071 16.9401V16.5637ZM4.50602 15.999C4.50602 16.3108 4.75887 16.5637 5.07071 16.5637V16.9401C4.55096 16.9401 4.12957 16.5187 4.12957 15.999H4.50602ZM5.07071 15.4343C4.75887 15.4343 4.50602 15.6871 4.50602 15.999H4.12957C4.12957 15.4792 4.55096 15.0578 5.07071 15.0578V15.4343ZM5.6354 15.999C5.6354 15.6871 5.38255 15.4343 5.07071 15.4343V15.0578C5.59047 15.0578 6.01186 15.4792 6.01186 15.999H5.6354Z" fill="#4A4A4A"/>
</svg>
