<svg width="27" height="27" viewBox="0 0 27 27" fill="none" xmlns="http://www.w3.org/2000/svg">
<path d="M19.6074 12.5822C19.6074 12.218 19.9442 11.9233 20.3603 11.9233C20.7765 11.9233 21.1133 12.218 21.1133 12.5822C21.1133 14.3121 18.9325 16.6874 18.6839 16.9531C18.5346 17.1114 18.3185 17.1938 18.1009 17.1938C17.9332 17.1938 17.7641 17.1448 17.6237 17.0445C17.3024 16.8135 17.2561 16.3986 17.5193 16.1168C18.3265 15.256 19.6074 13.5356 19.6074 12.5822Z" fill="#4A4A4A"/>
<path d="M6.80871 11.9233C7.22491 11.9233 7.56169 12.218 7.56169 12.5822C7.56169 13.5324 8.84262 15.2547 9.64996 16.1174C9.91319 16.3986 9.86618 16.8136 9.54478 17.0445C9.40508 17.1448 9.23595 17.1938 9.06759 17.1938C8.84996 17.1938 8.63452 17.1114 8.48522 16.9531C8.23668 16.6874 6.05572 14.3122 6.05572 12.5822C6.05572 12.218 6.39251 11.9233 6.80871 11.9233Z" fill="#4A4A4A"/>
<path d="M13.585 11.9233C14.0011 11.9233 14.3379 12.218 14.3379 12.5822V16.5349C14.3379 16.8991 14.0011 17.1938 13.585 17.1938C13.1688 17.1938 12.8321 16.8991 12.8321 16.5349V12.5822C12.8321 12.218 13.1689 11.9233 13.585 11.9233Z" fill="#4A4A4A"/>
<path fill-rule="evenodd" clip-rule="evenodd" d="M7.18343 2.95613C7.53601 2.95613 7.90445 3.00276 8.28707 3.07383C9.56846 1.5801 11.4653 0.628906 13.5832 0.628906C15.7011 0.628906 17.598 1.5801 18.8793 3.07378C19.262 3.00276 19.6305 2.95607 19.983 2.95607C23.5119 2.95613 26.3828 5.82704 26.3828 9.35592C26.3828 11.774 25.0192 13.9722 22.8784 15.0591L22.8897 23.8515C22.8903 24.4861 22.6437 25.0827 22.1954 25.5315C21.7466 25.981 21.1506 26.2281 20.5159 26.2281H6.6482C5.33915 26.2281 4.2744 25.1634 4.2744 23.8543V15.0506C2.14152 13.9609 0.783604 11.766 0.783604 9.35592C0.783659 5.82704 3.65457 2.95613 7.18343 2.95613ZM5.43991 23.8552C5.43991 24.5222 5.98306 25.0654 6.65013 25.0654H20.5179C20.8411 25.0654 21.1451 24.9392 21.3741 24.7103C21.6025 24.4813 21.7286 24.1773 21.7281 23.8535L21.725 21.5745H5.43991V23.8552ZM5.1665 14.1903C5.13923 14.1727 5.11027 14.1579 5.07956 14.1455C3.17735 13.3074 1.94897 11.4291 1.94897 9.3564C1.94897 6.46901 4.29773 4.12019 7.18516 4.12019C7.27048 4.12019 7.35939 4.12799 7.4482 4.13577C7.47686 4.13829 7.50551 4.1408 7.53403 4.14305C6.94539 5.16612 6.60335 6.34825 6.60335 7.611C6.60335 7.93259 6.86357 8.19281 7.18516 8.19281C7.50675 8.19281 7.76698 7.93259 7.76698 7.611C7.76698 4.40311 10.3771 1.79297 13.5849 1.79297C16.7928 1.79297 19.403 4.40311 19.403 7.611C19.403 7.93259 19.6632 8.19281 19.9848 8.19281C20.3064 8.19281 20.5666 7.93259 20.5666 7.611C20.5666 6.34825 20.2245 5.16607 19.6359 4.14305C19.6644 4.1408 19.6931 4.13829 19.7217 4.13577C19.8105 4.12799 19.8994 4.12019 19.9848 4.12019C22.8721 4.12019 25.221 6.46896 25.221 9.3564C25.221 11.4364 23.9875 13.3171 22.0779 14.1522C22.0461 14.1653 22.0154 14.1812 21.9864 14.1993C21.9159 14.2437 21.858 14.3016 21.8137 14.3681C21.7665 14.4391 21.7341 14.5209 21.7216 14.609C21.7171 14.6403 21.7154 14.6727 21.7159 14.7045L21.7234 20.4106H5.43982V14.6966C5.44036 14.6636 5.43867 14.6312 5.43355 14.5988C5.42106 14.5136 5.39035 14.434 5.34491 14.3653C5.30002 14.296 5.23981 14.2358 5.1665 14.1903Z" fill="#4A4A4A"/>
</svg>
