<svg width="20" height="26" viewBox="0 0 20 26" fill="none" xmlns="http://www.w3.org/2000/svg">
<path fill-rule="evenodd" clip-rule="evenodd" d="M1.5402 8.8164C1.5402 9.89712 1.66461 10.7065 1.89583 11.3268C0.931707 12.0249 0.316711 12.9042 0.316711 13.9874C0.316711 15.3677 0.776716 15.8639 1.8379 15.9791C2.21475 21.5307 5.76125 25.8902 10.1046 25.8902C14.448 25.8902 17.9945 21.5307 18.3714 15.9791C19.433 15.8639 19.8926 15.3677 19.8926 13.9874C19.8926 12.9046 19.278 12.0249 18.3135 11.3268C18.5451 10.7065 18.6691 9.89712 18.6691 8.8164C18.6691 3.32322 15.623 0.291016 10.1046 0.291016C4.58627 0.291016 1.5402 3.32322 1.5402 8.8164ZM2.7627 8.81606C2.7627 4.00811 5.23253 1.57063 10.1037 1.57063C14.9748 1.57063 17.4446 4.00811 17.4446 8.81606C17.4446 9.64889 17.3745 10.2385 17.2379 10.6835C15.2394 9.70608 12.4528 9.2504 10.1037 9.2504C7.75455 9.2504 4.96785 9.70608 2.96945 10.6835C2.83286 10.2385 2.7627 9.64889 2.7627 8.81606ZM10.1056 24.6105C13.7728 24.6105 16.7822 20.8223 17.1476 15.99C16.6755 15.9637 16.136 15.9144 15.5241 15.8584C14.12 15.7301 12.3344 15.5668 10.1056 15.5668C7.87386 15.5668 6.0867 15.7302 4.68201 15.8587L4.68198 15.8587C4.07211 15.9145 3.53434 15.9637 3.06358 15.99C3.429 20.8223 6.43836 24.6105 10.1056 24.6105ZM2.41875 14.7302C1.80495 14.7302 1.63247 14.6449 1.60351 14.6274C1.60472 14.6264 1.60292 14.6193 1.59926 14.6048C1.5845 14.5465 1.53945 14.3686 1.53942 13.9874C1.53942 11.9501 6.05286 10.5307 10.1039 10.5307C14.1549 10.5307 18.6683 11.9501 18.6683 13.9874C18.6683 14.5054 18.5855 14.6483 18.5847 14.6496C18.5851 14.6488 18.5851 14.6483 18.5839 14.6483C18.5818 14.6483 18.5765 14.6499 18.5675 14.6526C18.5113 14.6694 18.3078 14.7302 17.7891 14.7302C17.2385 14.7302 16.5322 14.6657 15.6387 14.5842L15.6308 14.5835L15.6186 14.5823C14.1753 14.4507 12.3801 14.2869 10.1039 14.2869C7.8209 14.2869 6.02194 14.4512 4.57659 14.5835L4.56694 14.5843C3.6743 14.6658 2.96897 14.7302 2.41875 14.7302Z" fill="#4A4A4A"/>
<path fill-rule="evenodd" clip-rule="evenodd" d="M12.6143 4.80811H7.59482C6.90171 4.80811 6.33996 5.2575 6.33996 5.812V6.81589C6.33996 7.37038 6.90171 7.81978 7.59482 7.81978H12.6143C13.3074 7.81978 13.8691 7.37038 13.8691 6.81589V5.812C13.8691 5.2575 13.3074 4.80811 12.6143 4.80811ZM12.6143 6.81588H7.59486V5.81199H12.6143V6.81588Z" fill="#4A4A4A"/>
</svg>
