<svg width="25" height="26" viewBox="0 0 25 26" fill="none" xmlns="http://www.w3.org/2000/svg">
<path fill-rule="evenodd" clip-rule="evenodd" d="M12.2236 1.10012C7.38167 1.09757 3.04155 4.18278 1.31732 8.85305C-0.406958 13.5233 0.84322 18.8075 4.45883 22.1317C4.46034 22.1709 4.46729 22.2097 4.4795 22.2469C4.54337 22.4082 4.70142 22.5078 4.86961 22.4929C6.94579 24.2417 9.54389 25.1958 12.2236 25.1934C16.2098 25.189 19.9185 23.0867 22.0613 19.6172C24.204 16.1477 24.4849 11.7898 22.8063 8.05788L22.7771 7.99266C22.6576 7.69659 22.503 7.41698 22.3167 7.16031C22.3098 7.10641 22.2924 7.05446 22.2656 7.00769C20.7495 4.35036 18.2988 2.39905 15.4239 1.55999L15.4083 1.55518C14.3724 1.25127 13.3005 1.09809 12.2236 1.10012ZM13.1865 3.57498C13.9913 3.53405 14.7415 3.13978 15.2506 2.49023C17.4294 3.19029 19.335 4.59862 20.6876 6.50835C20.6376 6.50432 20.5879 6.50192 20.539 6.50192C20.3094 6.49892 20.0821 6.54971 19.874 6.65054C19.5236 6.82827 19.2695 7.16166 19.1831 7.55706C19.1007 8.07268 19.1734 8.6022 19.391 9.07327C19.5606 9.40037 19.6179 9.77774 19.5536 10.1432C19.4503 10.4248 19.1338 10.6399 18.5562 10.8186L18.4857 10.8394C17.9021 10.944 17.3695 11.2506 16.9743 11.7095C16.766 12.0435 16.6326 12.4218 16.5838 12.8167C16.5502 13.0655 16.4808 13.3077 16.3778 13.5349C16.1082 14.0364 15.4505 14.2384 14.7989 14.4022C14.0238 14.5982 13.2493 14.7975 12.4753 15.0002C12.5697 14.8615 12.678 14.7335 12.7984 14.6185L12.9878 14.4623C13.5331 14.0173 14.2116 13.4629 14.2116 12.5123C14.2354 12.0132 13.9862 11.5429 13.5678 11.2975C13.1494 11.0521 12.6336 11.0736 12.2354 11.353L12.213 11.3638C12.1561 11.3916 12.0987 11.4195 12.0405 11.4443C12.0255 11.4511 12.0116 11.4563 11.9989 11.4607C12.0532 11.0037 12.1395 10.2434 11.4321 9.7683C11.0796 9.55495 10.6936 9.40835 10.2918 9.33526C10.0989 9.29329 9.90852 9.23977 9.72151 9.17504C9.22674 8.96736 8.76058 8.69247 8.33521 8.35744C8.21503 8.2705 8.11106 8.20642 8.00479 8.14112L8.00036 8.13838C7.73936 7.97679 7.49303 7.82429 7.42716 7.61358C7.34092 7.33718 7.75794 6.97309 8.01404 6.78039C8.52506 6.39902 9.02565 6.06376 9.51316 6.13506C9.70396 6.17623 9.88898 6.24228 10.0638 6.33175C10.2562 6.42555 10.4564 6.50089 10.6619 6.55689C11.0328 6.64754 11.4233 6.57398 11.7401 6.35382C11.9544 6.20031 12.093 5.95659 12.119 5.68727C12.116 5.2547 11.9086 4.85136 11.5645 4.60853C11.4261 4.49741 11.3115 4.35762 11.2279 4.19792C11.1959 3.98587 11.2963 3.77595 11.4783 3.67474C11.8033 3.50739 12.1739 3.46152 12.5276 3.54494C12.7463 3.5709 12.9665 3.5809 13.1865 3.57498ZM13.7076 24.1409L13.7041 24.1445C13.8569 24.0581 14.0052 23.9635 14.1481 23.8612C14.4629 23.6613 14.6781 23.3332 14.7389 22.9604C14.7172 22.7211 14.6412 22.4901 14.5169 22.2858C14.4299 22.0969 14.3655 21.898 14.3253 21.6934C14.3006 21.5076 14.2339 21.3303 14.1306 21.1751C14.0154 21.0682 13.882 20.9837 13.7369 20.9259C13.5743 20.8526 13.4198 20.7622 13.2758 20.6561C12.965 20.4039 12.7073 20.0906 12.5179 19.7347C12.4264 19.5712 12.3473 19.3931 12.271 19.2189C12.1674 18.9427 12.023 18.6843 11.8426 18.4527C11.4532 18.0348 10.6859 18.3451 10.3752 18.4967C9.78213 18.7681 9.23694 19.1368 8.7613 19.5883L8.71653 19.6351C8.21259 20.1778 7.67635 20.6885 7.11085 21.164C6.64301 21.5323 6.13041 21.8373 5.58576 22.0715C7.9128 23.8397 10.8377 24.5849 13.7076 24.1409ZM6.49184 20.5563C5.96086 20.9626 5.3741 21.2878 4.75017 21.5219C0.97588 18.167 -0.0725212 12.644 2.20381 8.10874C4.48033 3.57348 9.50164 1.18162 14.3986 2.29987C14.0407 2.61026 13.5919 2.79249 13.1216 2.81834C12.9331 2.82264 12.7446 2.81357 12.5574 2.79123C12.0238 2.6856 11.4704 2.77323 10.994 3.03889C10.4923 3.33292 10.2534 3.93612 10.4152 4.5002C10.5372 4.78717 10.728 5.03862 10.9704 5.23165C11.1671 5.41551 11.2938 5.54353 11.2851 5.64724C11.284 5.65958 11.2808 5.69267 11.223 5.73497C11.0841 5.81924 10.9184 5.84569 10.7607 5.80877C10.5964 5.76301 10.4363 5.70295 10.2823 5.62929C10.0405 5.51021 9.78384 5.42486 9.51943 5.37565C8.6673 5.25161 7.91272 5.79839 7.41502 6.16014C6.64002 6.72689 6.3414 7.30681 6.5267 7.88351C6.70963 8.31298 7.04472 8.65735 7.46578 8.8487C7.47346 8.85329 7.48114 8.85788 7.4888 8.86246C7.57227 8.91235 7.65456 8.96153 7.72664 9.01303C8.22516 9.39501 8.77186 9.70755 9.35226 9.94232C9.57144 10.0178 9.79477 10.0802 10.0211 10.1294C10.3424 10.1839 10.6523 10.293 10.9378 10.452C11.2021 10.6255 11.2273 10.8453 11.1628 11.3769C11.1161 11.6249 11.1862 11.8808 11.3524 12.0689C11.6079 12.3067 11.9839 12.3547 12.2895 12.1885C12.3612 12.1591 12.4395 12.1219 12.5178 12.0846L12.5189 12.084C12.8049 11.9477 12.9277 11.9026 13.0744 11.9644C13.2859 12.0622 13.4198 12.278 13.4151 12.5136C13.4151 13.0743 12.954 13.4413 12.4658 13.8297L12.2588 13.9964C12.2451 14.0068 11.4216 14.7335 11.5114 15.3377C11.5437 15.552 11.6865 15.7326 11.8859 15.8111C12.0569 15.8725 12.243 15.8749 12.4155 15.8179C13.2731 15.5985 14.13 15.3834 14.9861 15.1726C15.7839 14.9772 16.6719 14.7032 17.1015 13.9227C17.2486 13.6244 17.3482 13.3045 17.3966 12.9746C17.4284 12.6976 17.517 12.4304 17.6566 12.1901C17.9656 11.8862 18.3594 11.6861 18.7846 11.617L18.8633 11.5947C19.3979 11.4336 20.1336 11.14 20.3976 10.4409C20.5442 9.8981 20.4863 9.31949 20.2351 8.81761C20.077 8.4969 20.0114 8.13748 20.0459 7.78064C20.0775 7.61509 20.183 7.47371 20.3315 7.39776C20.4366 7.35037 20.5507 7.32724 20.6656 7.32995C20.8514 7.33191 21.0349 7.37262 21.2046 7.4496C21.2983 7.49077 21.3836 7.54952 21.456 7.62267C21.6595 7.84822 21.8189 8.11089 21.9257 8.39679L21.9556 8.46259C23.2909 11.38 23.3184 14.7399 22.031 17.6793C20.7436 20.6187 18.2666 22.8512 15.2364 23.8036C15.3886 23.5583 15.4721 23.2757 15.4779 22.986C15.4603 22.6167 15.353 22.2575 15.1655 21.9403C15.108 21.8072 15.0651 21.6681 15.0377 21.5255C14.9876 21.2063 14.8565 20.9059 14.6573 20.6536C14.4744 20.4675 14.2568 20.3202 14.0171 20.2205C13.9016 20.1696 13.7913 20.1073 13.6879 20.0342C13.4578 19.8445 13.2672 19.6102 13.1272 19.345C13.056 19.2178 12.9913 19.0732 12.9254 18.926C12.9211 18.9164 12.9168 18.9068 12.9124 18.8972C12.7747 18.5368 12.5789 18.2021 12.3329 17.9069C11.8054 17.3429 10.9327 17.2975 9.93741 17.7817C9.25586 18.0922 8.63074 18.5169 8.08832 19.038L8.0431 19.0846C7.55596 19.6067 7.03794 20.0981 6.49184 20.5563Z" fill="#4A4A4A"/>
<path d="M1.31732 8.85305L1.4939 8.91824L1.4939 8.91824L1.31732 8.85305ZM12.2236 1.10012L12.2239 1.28835L12.2235 1.28835L12.2236 1.10012ZM4.45883 22.1317L4.58623 21.9932L4.64391 22.0462L4.64692 22.1245L4.45883 22.1317ZM4.4795 22.2469L4.30417 22.3163L4.30066 22.3056L4.4795 22.2469ZM4.86961 22.4929L4.85299 22.3054L4.93099 22.2985L4.99088 22.349L4.86961 22.4929ZM12.2236 25.1934L12.2238 25.3817H12.2238L12.2236 25.1934ZM22.0613 19.6172L21.9011 19.5183L22.0613 19.6172ZM22.8063 8.05788L22.6347 8.13509L22.6346 8.13493L22.8063 8.05788ZM22.7771 7.99266L22.6052 8.06977L22.6025 8.06307L22.7771 7.99266ZM22.3167 7.16031L22.1644 7.27087L22.1361 7.23194L22.13 7.18422L22.3167 7.16031ZM22.2656 7.00769L22.1023 7.10137L22.1021 7.10097L22.2656 7.00769ZM15.4239 1.55999L15.3711 1.74071L15.3683 1.73985L15.4239 1.55999ZM15.4083 1.55518L15.4613 1.37455L15.4638 1.37533L15.4083 1.55518ZM15.2506 2.49023L15.1024 2.37411L15.1833 2.27091L15.3082 2.31102L15.2506 2.49023ZM13.1865 3.57498L13.1961 3.76302L13.1916 3.76314L13.1865 3.57498ZM20.6876 6.50835L20.8412 6.39956L21.0741 6.72837L20.6725 6.69597L20.6876 6.50835ZM20.539 6.50192V6.69017L20.5365 6.69014L20.539 6.50192ZM19.874 6.65054L19.7888 6.48265L19.7919 6.48114L19.874 6.65054ZM19.1831 7.55706L18.9969 7.52732L18.9992 7.51687L19.1831 7.55706ZM19.391 9.07327L19.2238 9.15998L19.2202 9.15223L19.391 9.07327ZM19.5536 10.1432L19.7389 10.1759L19.736 10.1923L19.7303 10.208L19.5536 10.1432ZM18.5562 10.8186L18.6118 10.9984L18.6096 10.9991L18.5562 10.8186ZM18.4857 10.8394L18.5391 11.02L18.5291 11.0229L18.5189 11.0247L18.4857 10.8394ZM16.9743 11.7095L16.8145 11.6099L16.8222 11.5976L16.8316 11.5866L16.9743 11.7095ZM16.5838 12.8167L16.7706 12.8398L16.7703 12.8418L16.5838 12.8167ZM16.3778 13.5349L16.5496 13.6128L16.5436 13.624L16.3778 13.5349ZM14.7989 14.4022L14.7528 14.2197L14.753 14.2196L14.7989 14.4022ZM12.4753 15.0002L12.523 15.1823L12.0372 15.3095L12.3197 14.8944L12.4753 15.0002ZM12.7984 14.6185L12.668 14.482L12.6786 14.4733L12.7984 14.6185ZM12.9878 14.4623L12.8681 14.317L12.8688 14.3164L12.9878 14.4623ZM14.2116 12.5123H14.0232L14.0236 12.5033L14.2116 12.5123ZM13.5678 11.2975L13.4726 11.4599L13.4725 11.4599L13.5678 11.2975ZM12.2354 11.353L12.3435 11.507L12.3312 11.5156L12.3178 11.5222L12.2354 11.353ZM12.213 11.3638L12.1305 11.1946L12.1306 11.1946L12.213 11.3638ZM12.0405 11.4443L11.9628 11.2728L11.9668 11.2711L12.0405 11.4443ZM11.9989 11.4607L12.0606 11.6386L11.7765 11.7371L11.812 11.4385L11.9989 11.4607ZM11.4321 9.7683L11.5296 9.6071L11.537 9.61205L11.4321 9.7683ZM10.2918 9.33526L10.2581 9.52055L10.2518 9.51918L10.2918 9.33526ZM9.72151 9.17504L9.65981 9.35328L9.64866 9.3486L9.72151 9.17504ZM8.33521 8.35744L8.44563 8.2048L8.45168 8.20956L8.33521 8.35744ZM8.00479 8.14112L7.90625 8.3015L7.90569 8.30115L8.00479 8.14112ZM8.00036 8.13838L8.09944 7.97834L8.09946 7.97835L8.00036 8.13838ZM7.42716 7.61358L7.24751 7.66974L7.24747 7.66964L7.42716 7.61358ZM8.01404 6.78039L7.90086 6.62998L7.90146 6.62953L8.01404 6.78039ZM9.51316 6.13506L9.54047 5.94839L9.55286 5.95107L9.51316 6.13506ZM10.0638 6.33175L9.98133 6.50097L9.97811 6.49932L10.0638 6.33175ZM10.6619 6.55689L10.6172 6.73981L10.6124 6.7385L10.6619 6.55689ZM11.7401 6.35382L11.8497 6.50686L11.8475 6.50839L11.7401 6.35382ZM12.119 5.68727L12.3073 5.68596L12.3073 5.6957L12.3064 5.70539L12.119 5.68727ZM11.5645 4.60853L11.4558 4.76262L11.4466 4.75529L11.5645 4.60853ZM11.2279 4.19792L11.0612 4.28519L11.0466 4.25725L11.0418 4.22608L11.2279 4.19792ZM11.4783 3.67474L11.3867 3.51016L11.3921 3.50739L11.4783 3.67474ZM12.5276 3.54494L12.5054 3.73186L12.4948 3.7306L12.4844 3.72814L12.5276 3.54494ZM13.7041 24.1445L13.7967 24.3084L13.5698 24.0126L13.7041 24.1445ZM13.7076 24.1409L13.6789 23.9549L14.2389 23.8682L13.842 24.2727L13.7076 24.1409ZM14.1481 23.8612L14.0383 23.7079L14.0472 23.7022L14.1481 23.8612ZM14.7389 22.9604L14.9263 22.9434L14.9285 22.9671L14.9247 22.9907L14.7389 22.9604ZM14.5169 22.2858L14.3561 22.3836L14.3505 22.3744L14.3459 22.3646L14.5169 22.2858ZM14.3253 21.6934L14.1403 21.7298L14.1387 21.7182L14.3253 21.6934ZM14.1306 21.1751L14.2587 21.0372L14.2749 21.0523L14.2872 21.0708L14.1306 21.1751ZM13.7369 20.9259L13.6671 21.101L13.6594 21.0975L13.7369 20.9259ZM13.2758 20.6561L13.164 20.8078L13.1572 20.8023L13.2758 20.6561ZM12.5179 19.7347L12.6822 19.6428L12.6841 19.6463L12.5179 19.7347ZM12.271 19.2189L12.0983 19.2945L12.0948 19.285L12.271 19.2189ZM11.8426 18.4527L11.9803 18.3243L11.986 18.3304L11.9911 18.337L11.8426 18.4527ZM10.3752 18.4967L10.4577 18.6659L10.4535 18.6679L10.3752 18.4967ZM8.7613 19.5883L8.62509 19.4581L8.63172 19.4518L8.7613 19.5883ZM8.71653 19.6351L8.57858 19.507L8.58048 19.5051L8.71653 19.6351ZM7.11085 21.164L7.23206 21.3082L7.22727 21.3119L7.11085 21.164ZM5.58576 22.0715L5.47188 22.2214L5.21488 22.0261L5.5114 21.8986L5.58576 22.0715ZM4.75017 21.5219L4.81628 21.6981L4.70998 21.738L4.62512 21.6626L4.75017 21.5219ZM6.49184 20.5563L6.61294 20.7007L6.60621 20.7058L6.49184 20.5563ZM2.20381 8.10874L2.03558 8.0243L2.03559 8.0243L2.20381 8.10874ZM14.3986 2.29987L14.4405 2.11637L14.8023 2.19897L14.5219 2.44208L14.3986 2.29987ZM13.1216 2.81834L13.1319 3.00638L13.1259 3.00652L13.1216 2.81834ZM12.5574 2.79123L12.5351 2.97813L12.5279 2.97728L12.5209 2.97587L12.5574 2.79123ZM10.994 3.03889L10.8988 2.87646L10.9023 2.87449L10.994 3.03889ZM10.4152 4.5002L10.242 4.57381L10.2375 4.5632L10.2343 4.55211L10.4152 4.5002ZM10.9704 5.23165L11.0876 5.08441L11.0935 5.08905L11.0989 5.09413L10.9704 5.23165ZM11.2851 5.64724L11.4727 5.66292L11.4725 5.66474L11.2851 5.64724ZM11.223 5.73497L11.3341 5.88688L11.3276 5.89168L11.3206 5.8959L11.223 5.73497ZM10.7607 5.80877L10.7177 5.9922L10.7102 5.99009L10.7607 5.80877ZM10.2823 5.62929L10.2011 5.79913L10.1991 5.79816L10.2823 5.62929ZM9.51943 5.37565L9.54657 5.18924L9.55388 5.1906L9.51943 5.37565ZM7.41502 6.16014L7.30392 6.0082L7.30435 6.00788L7.41502 6.16014ZM6.5267 7.88351L6.35352 7.95728L6.35013 7.94932L6.34749 7.94109L6.5267 7.88351ZM7.46578 8.8487L7.54366 8.67733L7.55334 8.68173L7.56246 8.68719L7.46578 8.8487ZM7.4888 8.86246L7.58536 8.70088L7.58537 8.70089L7.4888 8.86246ZM7.72664 9.01303L7.83612 8.85978L7.84113 8.86361L7.72664 9.01303ZM9.35226 9.94232L9.29089 10.1205L9.28168 10.1168L9.35226 9.94232ZM10.0211 10.1294L9.98956 10.3151L9.98117 10.3133L10.0211 10.1294ZM10.9378 10.452L11.0296 10.2872L11.041 10.2947L10.9378 10.452ZM11.1628 11.3769L11.3501 11.3997L11.3478 11.4118L11.1628 11.3769ZM11.3524 12.0689L11.2242 12.2067L11.2175 12.2004L11.2114 12.1935L11.3524 12.0689ZM12.2895 12.1885L12.1996 12.0232L12.2086 12.0183L12.2181 12.0144L12.2895 12.1885ZM12.5178 12.0846L12.4368 11.9146L12.4369 11.9146L12.5178 12.0846ZM12.5189 12.084L12.5999 12.2539L12.5998 12.254L12.5189 12.084ZM13.0744 11.9644L13.1475 11.7908L13.1534 11.7935L13.0744 11.9644ZM13.4151 12.5136H13.2269L13.2269 12.5098L13.4151 12.5136ZM12.4658 13.8297L12.3477 13.6831L12.3486 13.6824L12.4658 13.8297ZM12.2588 13.9964L12.377 14.1431L12.3723 14.1466L12.2588 13.9964ZM11.5114 15.3377L11.3252 15.3658L11.3252 15.3653L11.5114 15.3377ZM11.8859 15.8111L11.8222 15.9883L11.8169 15.9862L11.8859 15.8111ZM12.4155 15.8179L12.3562 15.6387L12.3688 15.6355L12.4155 15.8179ZM14.9861 15.1726L14.9411 14.9898L14.9413 14.9897L14.9861 15.1726ZM17.1015 13.9227L17.2705 14.006L17.2664 14.0134L17.1015 13.9227ZM17.3966 12.9746L17.5836 12.9961L17.5828 13.0019L17.3966 12.9746ZM17.6566 12.1901L17.4939 12.0956L17.5066 12.0737L17.5246 12.0559L17.6566 12.1901ZM18.7846 11.617L18.836 11.7981L18.8255 11.8011L18.8148 11.8028L18.7846 11.617ZM18.8633 11.5947L18.9176 11.7749L18.9147 11.7758L18.8633 11.5947ZM20.3976 10.4409L20.5793 10.4899L20.5769 10.4988L20.5737 10.5074L20.3976 10.4409ZM20.2351 8.81761L20.0668 8.90185L20.0663 8.90086L20.2351 8.81761ZM20.0459 7.78064L19.8586 7.76253L19.8594 7.75387L19.861 7.74532L20.0459 7.78064ZM20.3315 7.39776L20.2457 7.22997L20.2541 7.22619L20.3315 7.39776ZM20.6656 7.32995L20.6636 7.51818L20.6611 7.51812L20.6656 7.32995ZM21.2046 7.4496L21.1289 7.62195L21.1268 7.62101L21.2046 7.4496ZM21.456 7.62267L21.5899 7.49017L21.5957 7.49656L21.456 7.62267ZM21.9257 8.39679L21.754 8.47488L21.7494 8.46264L21.9257 8.39679ZM21.9556 8.46259L21.7845 8.54093L21.7843 8.5405L21.9556 8.46259ZM22.031 17.6793L22.2034 17.7548L22.031 17.6793ZM15.2364 23.8036L15.2928 23.9831L14.8089 24.1352L15.0764 23.7043L15.2364 23.8036ZM15.4779 22.986L15.6663 22.977L15.6661 22.9897L15.4779 22.986ZM15.1655 21.9403L15.0035 22.036L14.9975 22.0259L14.9928 22.015L15.1655 21.9403ZM15.0377 21.5255L14.8527 21.561L14.8517 21.5546L15.0377 21.5255ZM14.6573 20.6536L14.7916 20.5217L14.7987 20.529L14.805 20.5369L14.6573 20.6536ZM14.0171 20.2205L13.9448 20.3943L13.9413 20.3928L14.0171 20.2205ZM13.6879 20.0342L13.579 20.1884L13.5681 20.1795L13.6879 20.0342ZM13.1272 19.345L13.2915 19.253L13.2937 19.2572L13.1272 19.345ZM12.9254 18.926L12.7536 19.0029L12.7536 19.0029L12.9254 18.926ZM12.9124 18.8972L12.7404 18.9742L12.7366 18.9644L12.9124 18.8972ZM12.3329 17.9069L12.4706 17.7781L12.4775 17.7864L12.3329 17.9069ZM9.93741 17.7817L10.0198 17.951L10.0155 17.9529L9.93741 17.7817ZM8.08832 19.038L7.9531 18.9069L7.95793 18.9022L8.08832 19.038ZM8.0431 19.0846L7.90545 18.9562L7.90796 18.9536L8.0431 19.0846ZM1.14074 8.78786C2.89125 4.04642 7.29998 0.909297 12.2237 0.911888L12.2235 1.28835C7.46336 1.28584 3.19186 4.31915 1.4939 8.91824L1.14074 8.78786ZM4.33143 22.2703C0.658625 18.8935 -0.609499 13.5284 1.14074 8.78786L1.4939 8.91824C-0.204416 13.5182 1.02781 18.7216 4.58623 21.9932L4.33143 22.2703ZM4.30066 22.3056C4.28296 22.2517 4.27292 22.1956 4.27074 22.139L4.64692 22.1245C4.64776 22.1463 4.65162 22.1677 4.65834 22.1882L4.30066 22.3056ZM4.88624 22.6804C4.63194 22.703 4.39787 22.552 4.30449 22.3162L4.6545 22.1776C4.68886 22.2643 4.77089 22.3127 4.85299 22.3054L4.88624 22.6804ZM12.2238 25.3817C9.49899 25.3841 6.85802 24.4139 4.74835 22.6369L4.99088 22.349C7.03355 24.0696 9.58878 25.0075 12.2234 25.0052L12.2238 25.3817ZM22.2214 19.7161C20.0454 23.2395 16.277 25.3771 12.2238 25.3817L12.2234 25.0052C16.1426 25.0008 19.7917 22.9339 21.9011 19.5183L22.2214 19.7161ZM22.978 7.98067C24.6821 11.7694 24.3971 16.1932 22.2214 19.7161L21.9011 19.5183C24.0109 16.1021 24.2877 11.8103 22.6347 8.13509L22.978 7.98067ZM22.9488 7.91561L22.9781 7.98083L22.6346 8.13493L22.6053 8.06971L22.9488 7.91561ZM22.469 7.04974C22.6644 7.31893 22.8265 7.61204 22.9516 7.92225L22.6025 8.06307C22.4888 7.78113 22.3416 7.51503 22.1644 7.27087L22.469 7.04974ZM22.4289 6.914C22.4682 6.98251 22.4934 7.05821 22.5034 7.13639L22.13 7.18422C22.1262 7.15461 22.1167 7.1264 22.1023 7.10137L22.4289 6.914ZM15.4766 1.3793C18.3995 2.23236 20.8894 4.2157 22.4291 6.91441L22.1021 7.10097C20.6096 4.48502 18.1981 2.56574 15.3711 1.74069L15.4766 1.3793ZM15.4638 1.37533L15.4794 1.38014L15.3683 1.73985L15.3527 1.73503L15.4638 1.37533ZM12.2232 0.911888C13.3182 0.909825 14.4081 1.06558 15.4613 1.37456L15.3553 1.7358C14.3367 1.43696 13.2827 1.28635 12.2239 1.28835L12.2232 0.911888ZM15.3987 2.60634C14.8569 3.29759 14.0567 3.71919 13.1961 3.76297L13.177 3.387C13.9258 3.34891 14.626 2.98196 15.1024 2.37411L15.3987 2.60634ZM20.534 6.61715C19.2044 4.73985 17.3321 3.35673 15.193 2.66943L15.3082 2.31102C17.5267 3.02384 19.4656 4.45739 20.8412 6.39956L20.534 6.61715ZM20.539 6.31369C20.594 6.31369 20.6488 6.31638 20.7028 6.32073L20.6725 6.69597C20.6264 6.69225 20.5819 6.69015 20.539 6.69015V6.31369ZM19.7919 6.48114C20.0262 6.36765 20.2824 6.31032 20.5415 6.31371L20.5365 6.69014C20.3364 6.68752 20.1381 6.73177 19.956 6.81995L19.7919 6.48114ZM18.9992 7.51687C19.0973 7.06817 19.3863 6.68686 19.7888 6.48268L19.9591 6.81841C19.6609 6.96968 19.4418 7.25514 19.367 7.59725L18.9992 7.51687ZM19.2202 9.15223C18.9867 8.647 18.909 8.07964 18.9972 7.52737L19.369 7.58675C19.2925 8.06571 19.36 8.55739 19.5619 8.99431L19.2202 9.15223ZM19.3682 10.1106C19.4254 9.78546 19.3743 9.45002 19.2239 9.15989L19.5582 8.98665C19.7469 9.35071 19.8104 9.77002 19.7389 10.1759L19.3682 10.1106ZM18.5006 10.6388C19.0731 10.4617 19.307 10.2691 19.3768 10.0785L19.7303 10.208C19.5937 10.5806 19.1946 10.8182 18.6118 10.9984L18.5006 10.6388ZM18.4323 10.6589L18.5028 10.6381L18.6096 10.9991L18.5391 11.02L18.4323 10.6589ZM16.8316 11.5866C17.2544 11.0958 17.8253 10.7666 18.4525 10.6542L18.5189 11.0247C17.9788 11.1215 17.4845 11.4055 17.1169 11.8323L16.8316 11.5866ZM16.397 12.7936C16.4491 12.3719 16.5917 11.9674 16.8145 11.6099L17.134 11.8091C16.9404 12.1196 16.8161 12.4718 16.7706 12.8398L16.397 12.7936ZM16.2063 13.4572C16.3017 13.2467 16.3661 13.0223 16.3972 12.7915L16.7703 12.8418C16.7344 13.1087 16.6599 13.3686 16.5492 13.6126L16.2063 13.4572ZM14.753 14.2196C15.0783 14.1378 15.3894 14.0501 15.6504 13.9254C15.9106 13.801 16.1033 13.6479 16.212 13.4458L16.5436 13.624C16.3826 13.9234 16.1116 14.1221 15.8128 14.265C15.5146 14.4075 15.171 14.5027 14.8448 14.5847L14.753 14.2196ZM12.4276 14.8181C13.2022 14.6153 13.9772 14.4158 14.7528 14.2197L14.8451 14.5847C14.0705 14.7805 13.2965 14.9798 12.523 15.1823L12.4276 14.8181ZM12.9284 14.7546C12.8177 14.8604 12.718 14.9782 12.6309 15.1061L12.3197 14.8944C12.4215 14.7447 12.5383 14.6066 12.6683 14.4824L12.9284 14.7546ZM13.1076 14.6075L12.9181 14.7637L12.6786 14.4733L12.8681 14.317L13.1076 14.6075ZM14.3999 12.5123C14.3999 13.5639 13.6422 14.1712 13.1068 14.6081L12.8688 14.3164C13.424 13.8633 14.0234 13.3618 14.0234 12.5123H14.3999ZM13.663 11.1352C14.1441 11.4173 14.4267 11.9549 14.3996 12.5212L14.0236 12.5033C14.0442 12.0715 13.8284 11.6686 13.4726 11.4599L13.663 11.1352ZM12.1273 11.1989C12.5855 10.8773 13.1808 10.8523 13.663 11.1352L13.4725 11.4599C13.1179 11.2518 12.6816 11.2698 12.3435 11.507L12.1273 11.1989ZM12.1306 11.1946L12.153 11.1837L12.3178 11.5222L12.2954 11.5331L12.1306 11.1946ZM11.9668 11.2711C12.0198 11.2485 12.0729 11.2227 12.1305 11.1946L12.2954 11.5331C12.2392 11.5605 12.1776 11.5905 12.1142 11.6175L11.9668 11.2711ZM11.9372 11.2829C11.9465 11.2797 11.9546 11.2766 11.9628 11.2729L12.1182 11.6158C12.0963 11.6257 12.0768 11.633 12.0606 11.6386L11.9372 11.2829ZM11.537 9.61205C12.3493 10.1576 12.2387 11.0377 12.1858 11.4829L11.812 11.4385C11.8677 10.9697 11.9297 10.3293 11.3271 9.92456L11.537 9.61205ZM10.3255 9.15007C10.75 9.2273 11.1576 9.38216 11.5295 9.60728L11.3346 9.92933C11.0015 9.72774 10.6371 9.58939 10.2581 9.52045L10.3255 9.15007ZM9.78309 8.99717C9.96308 9.05947 10.1463 9.11096 10.3318 9.15133L10.2518 9.51918C10.0516 9.47562 9.85397 9.42008 9.65994 9.35291L9.78309 8.99717ZM8.45168 8.20956C8.86384 8.5342 9.31535 8.80042 9.79436 9.00148L9.64866 9.3486C9.13813 9.13431 8.65731 8.85074 8.21874 8.50531L8.45168 8.20956ZM8.10332 7.98075C8.20965 8.04607 8.31904 8.11341 8.44554 8.20493L8.22488 8.50994C8.11103 8.42758 8.01247 8.36677 7.90625 8.3015L8.10332 7.98075ZM8.09946 7.97835L8.10388 7.98109L7.90569 8.30115L7.90126 8.29841L8.09946 7.97835ZM7.60681 7.55741C7.62384 7.61188 7.6695 7.6741 7.7605 7.74931C7.8511 7.82418 7.96609 7.89578 8.09944 7.97834L7.90128 8.29842C7.77363 8.21939 7.63496 8.13394 7.52067 8.03949C7.40679 7.94537 7.29635 7.82599 7.24751 7.66974L7.60681 7.55741ZM8.12721 6.93079C8.00311 7.02418 7.84822 7.15325 7.73646 7.28653C7.68053 7.35323 7.64163 7.41374 7.62078 7.46491C7.60014 7.51555 7.60244 7.5434 7.60685 7.55751L7.24747 7.66964C7.20876 7.54556 7.23084 7.42424 7.27215 7.32286C7.31324 7.22201 7.37843 7.12762 7.44799 7.04466C7.5872 6.87862 7.76887 6.7293 7.90086 6.62998L8.12721 6.93079ZM9.48592 6.32131C9.29442 6.2933 9.08742 6.34315 8.85529 6.45698C8.62256 6.5711 8.38196 6.74068 8.12662 6.93124L7.90146 6.62953C8.15713 6.43873 8.42234 6.25 8.68954 6.11897C8.95734 5.98765 9.24439 5.90552 9.5404 5.94881L9.48592 6.32131ZM9.97811 6.49932C9.81775 6.41727 9.64819 6.35676 9.47346 6.31906L9.55286 5.95107C9.75973 5.9957 9.96022 6.06729 10.1496 6.16418L9.97811 6.49932ZM10.6124 6.7385C10.3955 6.67939 10.1842 6.59988 9.98135 6.50094L10.1464 6.16257C10.3281 6.25121 10.5173 6.32239 10.7114 6.37529L10.6124 6.7385ZM11.8475 6.50839C11.4869 6.75897 11.0412 6.84335 10.6172 6.73974L10.7066 6.37404C11.0245 6.45173 11.3596 6.38899 11.6327 6.19924L11.8475 6.50839ZM12.3064 5.70539C12.2753 6.02717 12.1095 6.32077 11.8497 6.50684L11.6305 6.20079C11.7993 6.07986 11.9107 5.886 11.9317 5.66916L12.3064 5.70539ZM11.673 4.45473C12.0683 4.73367 12.3038 5.19461 12.3073 5.68596L11.9308 5.68859C11.9282 5.31478 11.749 4.96906 11.456 4.76232L11.673 4.45473ZM11.3947 4.11064C11.4664 4.24769 11.5645 4.36714 11.6824 4.46176L11.4466 4.75529C11.2878 4.62769 11.1566 4.46754 11.0612 4.28519L11.3947 4.11064ZM11.5698 3.83923C11.4592 3.90075 11.3933 4.03227 11.4141 4.16975L11.0418 4.22608C10.9985 3.93948 11.1335 3.65114 11.3868 3.51024L11.5698 3.83923ZM12.4844 3.72814C12.1746 3.65509 11.8499 3.69512 11.5644 3.84209L11.3921 3.50739C11.7567 3.31965 12.1731 3.26796 12.5708 3.36174L12.4844 3.72814ZM13.1916 3.76314C12.9625 3.7693 12.7332 3.75889 12.5054 3.73186L12.5498 3.35802C12.7595 3.38291 12.9705 3.39249 13.1815 3.38682L13.1916 3.76314ZM13.5698 24.0126L13.5733 24.0091L13.842 24.2727L13.8385 24.2763L13.5698 24.0126ZM14.2577 24.0142C14.1093 24.1205 13.9554 24.2187 13.7967 24.3084L13.6115 23.9806C13.7585 23.8976 13.901 23.8066 14.0385 23.7081L14.2577 24.0142ZM14.9247 22.9907C14.8554 23.4157 14.6098 23.791 14.249 24.0201L14.0472 23.7022C14.316 23.5316 14.5009 23.2507 14.5531 22.9301L14.9247 22.9907ZM14.6777 22.188C14.817 22.417 14.902 22.6756 14.9263 22.9434L14.5514 22.9774C14.5323 22.7665 14.4653 22.5633 14.3561 22.3836L14.6777 22.188ZM14.51 21.6571C14.5473 21.8471 14.6071 22.0317 14.6879 22.207L14.3459 22.3646C14.2526 22.1621 14.1837 21.9489 14.1406 21.7297L14.51 21.6571ZM14.2872 21.0708C14.4066 21.2499 14.4834 21.4545 14.5119 21.6685L14.1387 21.7182C14.1178 21.5607 14.0613 21.4106 13.9739 21.2795L14.2872 21.0708ZM13.8065 20.7511C13.9733 20.8175 14.1266 20.9145 14.2587 21.0372L14.0025 21.3131C13.9043 21.2218 13.7906 21.15 13.6672 21.1008L13.8065 20.7511ZM13.3874 20.5045C13.5208 20.6028 13.6639 20.6865 13.8143 20.7544L13.6594 21.0975C13.4848 21.0187 13.3188 20.9216 13.1642 20.8077L13.3874 20.5045ZM12.6841 19.6463C12.8617 19.9801 13.1033 20.2738 13.3944 20.5099L13.1572 20.8023C12.8267 20.5341 12.5529 20.2011 12.3517 19.8232L12.6841 19.6463ZM12.4434 19.1434C12.52 19.3183 12.5958 19.4884 12.6822 19.6428L12.3537 19.8267C12.257 19.6541 12.1746 19.4679 12.0986 19.2944L12.4434 19.1434ZM11.9911 18.337C12.1832 18.5838 12.337 18.8589 12.4472 19.1528L12.0948 19.285C11.9978 19.0265 11.8627 18.7848 11.6941 18.5683L11.9911 18.337ZM10.2926 18.3275C10.4543 18.2487 10.7434 18.1238 11.0499 18.0752C11.3513 18.0275 11.7213 18.0464 11.9803 18.3243L11.7049 18.581C11.5745 18.4411 11.3662 18.4063 11.1089 18.4471C10.8567 18.487 10.6068 18.5932 10.4577 18.6659L10.2926 18.3275ZM8.63172 19.4518C9.12233 18.9861 9.68482 18.6056 10.2968 18.3256L10.4535 18.6679C9.87944 18.9306 9.35155 19.2876 8.89089 19.7248L8.63172 19.4518ZM8.58048 19.5051L8.62525 19.4582L8.89735 19.7184L8.85258 19.7652L8.58048 19.5051ZM6.9897 21.02C7.54926 20.5494 8.07991 20.0441 8.5786 19.5071L8.85446 19.7632C8.34528 20.3116 7.80343 20.8275 7.232 21.3081L6.9897 21.02ZM5.5114 21.8986C6.04093 21.6709 6.5394 21.3743 6.99443 21.0161L7.22727 21.3119C6.74662 21.6903 6.21988 22.0037 5.66012 22.2445L5.5114 21.8986ZM13.7364 24.3269C10.8157 24.7788 7.83931 24.0202 5.47188 22.2214L5.69964 21.9217C7.98629 23.6591 10.8598 24.391 13.6789 23.9549L13.7364 24.3269ZM4.68407 21.3456C5.29062 21.1181 5.86113 20.8019 6.37746 20.4068L6.60621 20.7058C6.0606 21.1232 5.45758 21.4576 4.81628 21.6981L4.68407 21.3456ZM2.37204 8.19318C0.133667 12.6529 1.16507 18.0833 4.87523 21.3812L4.62512 21.6626C0.786688 18.2507 -0.278708 12.6352 2.03558 8.0243L2.37204 8.19318ZM14.3567 2.48338C9.54547 1.38471 4.61024 3.73424 2.37204 8.19318L2.03559 8.0243C4.35041 3.41272 9.4578 0.978536 14.4405 2.11637L14.3567 2.48338ZM13.1112 2.63039C13.5396 2.60685 13.9487 2.44087 14.2753 2.15767L14.5219 2.44208C14.1327 2.77965 13.6442 2.97813 13.1319 3.00628L13.1112 2.63039ZM12.5797 2.60432C12.7581 2.62561 12.9377 2.63425 13.1173 2.63016L13.1259 3.00652C12.9285 3.01102 12.7311 3.00152 12.5351 2.97813L12.5797 2.60432ZM10.9023 2.87449C11.4176 2.58716 12.0164 2.49226 12.594 2.60658L12.5209 2.97587C12.0311 2.87894 11.5232 2.95931 11.0856 3.20329L10.9023 2.87449ZM10.2343 4.55211C10.0491 3.90648 10.322 3.21457 10.8988 2.8765L11.0891 3.20129C10.6626 3.45127 10.4577 3.96575 10.5962 4.44829L10.2343 4.55211ZM10.8531 5.37889C10.5861 5.16622 10.3761 4.8894 10.242 4.57381L10.5885 4.42658C10.6983 4.68494 10.8699 4.91102 11.0876 5.08441L10.8531 5.37889ZM11.0975 5.63156C11.0953 5.65868 11.1104 5.6519 11.0586 5.58816C11.0129 5.53187 10.9417 5.46248 10.8418 5.36916L11.0989 5.09413C11.1958 5.18469 11.2862 5.27123 11.3509 5.35084C11.4095 5.423 11.4836 5.53209 11.4727 5.66292L11.0975 5.63156ZM11.1118 5.58306C11.1232 5.57474 11.1175 5.57594 11.1097 5.59034C11.1059 5.5975 11.1026 5.60584 11.1004 5.6149C11.0982 5.62379 11.0976 5.6311 11.0977 5.62974L11.4725 5.66474C11.471 5.68143 11.4666 5.7219 11.4409 5.7694C11.4167 5.81401 11.3806 5.8529 11.3341 5.88688L11.1118 5.58306ZM10.8036 5.62549C10.9132 5.65115 11.0284 5.63285 11.1253 5.57404L11.3206 5.8959C11.1397 6.00563 10.9236 6.04023 10.7178 5.99204L10.8036 5.62549ZM10.3635 5.45947C10.5077 5.52842 10.6575 5.58463 10.8112 5.62744L10.7102 5.99009C10.5353 5.94139 10.365 5.87748 10.2011 5.79912L10.3635 5.45947ZM9.55388 5.1906C9.83524 5.24297 10.1082 5.33377 10.3654 5.46043L10.1991 5.79816C9.97267 5.68664 9.73244 5.60676 9.48499 5.5607L9.55388 5.1906ZM7.30435 6.00788C7.55182 5.82801 7.87868 5.59025 8.25486 5.41509C8.63239 5.23929 9.07215 5.12032 9.54655 5.18938L9.49232 5.56191C9.11458 5.50693 8.75098 5.59934 8.41377 5.75636C8.0752 5.91402 7.77592 6.13052 7.52569 6.3124L7.30435 6.00788ZM6.34749 7.94109C6.12386 7.24509 6.50814 6.59013 7.30392 6.00821L7.52613 6.31208C6.77189 6.86364 6.55894 7.36854 6.7059 7.82593L6.34749 7.94109ZM7.38791 9.02006C6.92356 8.80905 6.55472 8.42962 6.35352 7.95728L6.69987 7.80975C6.86455 8.19635 7.16588 8.50565 7.54366 8.67733L7.38791 9.02006ZM7.39224 9.02403C7.38458 9.01945 7.37685 9.01484 7.36911 9.0102L7.56246 8.68719C7.57007 8.69174 7.57769 8.6963 7.58536 8.70088L7.39224 9.02403ZM7.61722 9.16618C7.55256 9.11999 7.47722 9.07482 7.39223 9.02403L7.58537 8.70089C7.66732 8.74987 7.75656 8.80307 7.83606 8.85987L7.61722 9.16618ZM9.28168 10.1168C8.68553 9.87568 8.12407 9.55469 7.61216 9.16244L7.84113 8.86361C8.32625 9.23534 8.85819 9.53943 9.42284 9.76782L9.28168 10.1168ZM9.98117 10.3133C9.74761 10.2626 9.51715 10.1982 9.29097 10.1203L9.41355 9.76434C9.62573 9.83741 9.84192 9.89786 10.061 9.94541L9.98117 10.3133ZM10.8462 10.6165C10.5793 10.4678 10.2897 10.3659 9.98959 10.3149L10.0526 9.94379C10.395 10.0019 10.7253 10.1182 11.0294 10.2876L10.8462 10.6165ZM10.9759 11.3543C11.0084 11.0868 11.0134 10.9285 10.9897 10.8204C10.9703 10.7314 10.9309 10.6727 10.8345 10.6094L11.041 10.2947C11.209 10.4049 11.3144 10.5428 11.3575 10.74C11.3964 10.918 11.3817 11.1354 11.3497 11.3996L10.9759 11.3543ZM11.2114 12.1935C11.0065 11.9617 10.9204 11.6468 10.9778 11.3421L11.3478 11.4118C11.3118 11.603 11.366 11.8 11.4935 11.9442L11.2114 12.1935ZM12.3795 12.3539C12.0024 12.5589 11.5386 12.4994 11.2242 12.2067L11.4807 11.9311C11.6772 12.1141 11.9654 12.1505 12.1996 12.0232L12.3795 12.3539ZM12.5987 12.2545C12.5216 12.2913 12.4384 12.3309 12.361 12.3627L12.2181 12.0144C12.284 11.9873 12.3573 11.9525 12.4368 11.9146L12.5987 12.2545ZM12.5998 12.254L12.5986 12.2545L12.4369 11.9146L12.438 11.9141L12.5998 12.254ZM13.0013 12.1378C12.969 12.1242 12.9433 12.1207 12.8933 12.1328C12.8307 12.148 12.7461 12.1843 12.5999 12.2539L12.4379 11.9141C12.5778 11.8474 12.6975 11.7929 12.8045 11.767C12.9241 11.7379 13.0331 11.7427 13.1475 11.7909L13.0013 12.1378ZM13.2269 12.5098C13.2301 12.3479 13.1381 12.2012 12.9954 12.1352L13.1534 11.7935C13.4337 11.9231 13.6094 12.2081 13.6033 12.5173L13.2269 12.5098ZM12.3486 13.6824C12.5965 13.4852 12.8175 13.3084 12.9793 13.1153C13.1372 12.9269 13.2269 12.7364 13.2269 12.5136H13.6033C13.6033 12.8515 13.4625 13.1248 13.2678 13.3571C13.077 13.5849 12.8234 13.7858 12.583 13.977L12.3486 13.6824ZM12.1408 13.8498L12.3477 13.6831L12.5839 13.9763L12.3769 14.143L12.1408 13.8498ZM11.3252 15.3653C11.2959 15.1681 11.3424 14.973 11.415 14.8014C11.488 14.6288 11.5926 14.4671 11.6964 14.3305C11.9017 14.0603 12.1229 13.8632 12.1454 13.8462L12.3723 14.1466C12.381 14.14 12.1837 14.3114 11.9962 14.5582C11.9036 14.6801 11.8184 14.8141 11.7617 14.948C11.7047 15.0829 11.682 15.2052 11.6975 15.31L11.3252 15.3653ZM11.8169 15.9862C11.5541 15.8827 11.3675 15.6455 11.3252 15.3658L11.6975 15.3096C11.72 15.4585 11.8189 15.5824 11.9549 15.636L11.8169 15.9862ZM12.4745 15.9966C12.2622 16.0668 12.0328 16.0639 11.8223 15.9882L11.9495 15.634C12.0809 15.6812 12.2239 15.683 12.3564 15.6392L12.4745 15.9966ZM15.0311 15.3553C14.1755 15.566 13.3192 15.781 12.4621 16.0002L12.3688 15.6355C13.227 15.416 14.0844 15.2008 14.9411 14.9898L15.0311 15.3553ZM17.2664 14.0134C16.7923 14.8748 15.8208 15.1619 15.0308 15.3554L14.9413 14.9897C15.7471 14.7924 16.5515 14.5315 16.9366 13.8319L17.2664 14.0134ZM17.5828 13.0019C17.5316 13.3512 17.4261 13.69 17.2703 14.0059L16.9327 13.8394C17.0711 13.5588 17.1648 13.2577 17.2103 12.9473L17.5828 13.0019ZM17.8194 12.2847C17.6928 12.5025 17.6125 12.7448 17.5836 12.9961L17.2096 12.9531C17.2444 12.6504 17.3412 12.3583 17.4939 12.0956L17.8194 12.2847ZM18.8148 11.8028C18.4283 11.8656 18.07 12.0475 17.7886 12.3243L17.5246 12.0559C17.8612 11.7249 18.2905 11.5066 18.7544 11.4312L18.8148 11.8028ZM18.9147 11.7758L18.836 11.7981L18.7332 11.436L18.8119 11.4136L18.9147 11.7758ZM20.5737 10.5074C20.2743 11.3002 19.4503 11.6144 18.9176 11.7749L18.809 11.4145C19.3456 11.2528 19.9929 10.9798 20.2215 10.3744L20.5737 10.5074ZM20.4035 8.73338C20.6753 9.27663 20.7379 9.90269 20.5793 10.4899L20.2159 10.3918C20.3504 9.89351 20.2972 9.36234 20.0668 8.90184L20.4035 8.73338ZM20.2333 7.79875C20.2021 8.12085 20.2613 8.44515 20.404 8.73437L20.0663 8.90086C19.8926 8.54864 19.8207 8.15412 19.8586 7.76253L20.2333 7.79875ZM20.4172 7.56536C20.321 7.61455 20.2517 7.70673 20.2308 7.81596L19.861 7.74532C19.9034 7.52345 20.045 7.33288 20.2458 7.23017L20.4172 7.56536ZM20.6611 7.51812C20.5744 7.51608 20.4883 7.53353 20.409 7.56933L20.2541 7.22619C20.3848 7.16721 20.5269 7.13839 20.67 7.14177L20.6611 7.51812ZM21.1268 7.62101C20.9809 7.55482 20.8233 7.51985 20.6636 7.51817L20.6675 7.14173C20.8796 7.14397 21.0889 7.19042 21.2823 7.27818L21.1268 7.62101ZM21.3221 7.75502C21.2664 7.69864 21.2008 7.65351 21.1289 7.62194L21.2802 7.27725C21.3959 7.32803 21.5009 7.4004 21.5898 7.49031L21.3221 7.75502ZM21.7494 8.46264C21.6509 8.19887 21.5038 7.95666 21.3162 7.74877L21.5957 7.49656C21.8152 7.73978 21.987 8.02291 22.102 8.33093L21.7494 8.46264ZM21.7843 8.5405L21.7544 8.4747L22.0971 8.31888L22.127 8.38468L21.7843 8.5405ZM21.8585 17.6037C23.1244 14.7135 23.0975 11.4095 21.7845 8.54093L22.1268 8.38425C23.4844 11.3504 23.5123 14.7663 22.2034 17.7548L21.8585 17.6037ZM15.1799 23.624C18.1577 22.6882 20.5927 20.4939 21.8585 17.6037L22.2034 17.7548C20.8944 20.7434 18.3755 23.0143 15.2928 23.9831L15.1799 23.624ZM15.6661 22.9897C15.6597 23.3131 15.5664 23.6288 15.3963 23.9028L15.0764 23.7043C15.2108 23.4879 15.2846 23.2383 15.2897 22.9822L15.6661 22.9897ZM15.3276 21.8445C15.5307 22.1882 15.6468 22.5772 15.6659 22.977L15.2899 22.9949C15.2737 22.6561 15.1753 22.3268 15.0035 22.036L15.3276 21.8445ZM15.2226 21.49C15.2474 21.6191 15.2862 21.7451 15.3383 21.8655L14.9928 22.015C14.9298 21.8693 14.8828 21.7171 14.8528 21.561L15.2226 21.49ZM14.805 20.5369C15.0244 20.8147 15.1686 21.1453 15.2237 21.4963L14.8517 21.5546C14.8067 21.2673 14.6886 20.997 14.5095 20.7703L14.805 20.5369ZM14.0895 20.0467C14.3525 20.1562 14.5912 20.3177 14.7916 20.5217L14.5229 20.7855C14.3577 20.6172 14.1612 20.4843 13.9448 20.3943L14.0895 20.0467ZM13.7964 19.8805C13.8896 19.9463 13.9889 20.0024 14.0929 20.0482L13.9413 20.3928C13.8142 20.3369 13.693 20.2682 13.5793 20.188L13.7964 19.8805ZM13.2937 19.2572C13.4221 19.5004 13.5968 19.7152 13.8076 19.889L13.5681 20.1795C13.3187 19.9738 13.1123 19.72 12.9608 19.4329L13.2937 19.2572ZM13.0972 18.8491C13.1639 18.9981 13.2251 19.1345 13.2915 19.2531L12.963 19.437C12.8868 19.301 12.8187 19.1483 12.7536 19.0029L13.0972 18.8491ZM13.0842 18.8202C13.0886 18.8299 13.0929 18.8395 13.0972 18.8491L12.7536 19.0029C12.7493 18.9933 12.745 18.9837 12.7407 18.9741L13.0842 18.8202ZM12.4775 17.7864C12.7368 18.0976 12.9432 18.4503 13.0883 18.83L12.7366 18.9644C12.6063 18.6233 12.4209 18.3066 12.1883 18.0274L12.4775 17.7864ZM9.85508 17.6124C10.8848 17.1115 11.8611 17.127 12.4704 17.7783L12.1955 18.0355C11.7496 17.5589 10.9807 17.4835 10.0197 17.9509L9.85508 17.6124ZM7.95793 18.9022C8.5156 18.3665 9.1584 17.9298 9.85936 17.6104L10.0155 17.9529C9.35332 18.2547 8.74588 18.6673 8.21872 19.1737L7.95793 18.9022ZM7.90796 18.9536L7.95319 18.9069L8.22346 19.169L8.17823 19.2157L7.90796 18.9536ZM6.37086 20.4121C6.91109 19.9589 7.42355 19.4727 7.90547 18.9562L8.18072 19.213C7.68837 19.7407 7.16479 20.2374 6.61282 20.7005L6.37086 20.4121Z" fill="#4A4A4A"/>
</svg>
